<?xml version="1.0" encoding="UTF-8"?>
<svg width="209px" height="61px" viewBox="0 0 209 61" version="1.1" xmlns="http://www.w3.org/2000/svg" xmlns:xlink="http://www.w3.org/1999/xlink">
    <title>logo</title>
    <g id="logo" stroke="none" stroke-width="1" fill="none" fill-rule="evenodd">
        <g id="编组" transform="translate(72.6391, 14.9156)" fill="#000000" fill-rule="nonzero">
            <path d="M3.01740392,0 L3.01740392,3.65265025 L0,3.65265025 L0,0 L3.01740392,0 Z M3.01740392,7.25236353 L3.01740392,25.0921191 L0,25.0921191 L0,7.25236353 L3.01740392,7.25236353 Z" id="形状"></path>
            <path d="M19.7984046,25.0921191 L19.7984046,13.1283661 C19.7984046,11.963753 19.4807832,11.0638247 18.8984772,10.587392 C18.3161711,10.0580224 17.4691806,9.79333761 16.4633793,9.79333761 L11.4343727,9.79333761 L11.4343727,25.0921191 L8.36403191,25.0921191 L8.36403191,7.19942657 L16.9927484,7.19942657 C18.7926033,7.19942657 20.168963,7.67585921 21.2806381,8.62872449 C22.3393764,9.58158977 22.8687455,11.0638247 22.8687455,13.0754291 L22.8687455,25.0921191 L19.7984046,25.0921191 Z" id="路径"></path>
            <path d="M38.8556925,25.0921191 L38.8556925,13.1283661 C38.8556925,11.963753 38.5380711,11.0638247 37.955765,10.587392 C37.373459,10.0580224 36.5264685,9.79333761 35.5206672,9.79333761 L30.4916606,9.79333761 L30.4916606,25.0921191 L27.4213198,25.0921191 L27.4213198,7.19942657 L36.0500363,7.19942657 C37.8498912,7.19942657 39.2262509,7.67585921 40.337926,8.62872449 C41.3966642,9.58158977 41.9260334,11.0638247 41.9260334,13.0754291 L41.9260334,25.0921191 L38.8556925,25.0921191 Z" id="路径"></path>
            <path d="M60.7186367,8.89340929 C62.6773024,10.1109594 63.6831037,12.5460595 63.6831037,16.1987098 C63.6831037,19.9572339 62.7302393,22.3923341 60.7715736,23.5569472 C58.8129079,24.7215604 56.6954315,25.3038669 54.4720812,25.3038669 C52.1957941,25.3038669 50.0783176,24.7215604 48.1725888,23.5569472 C46.26686,22.3923341 45.2610587,19.9572339 45.2610587,16.1987098 C45.2610587,12.5460595 46.2139231,10.0580224 48.1725888,8.89340929 C50.1312545,7.67585921 52.1957941,7.09355265 54.4720812,7.09355265 C56.6424946,7.04061569 58.759971,7.67585921 60.7186367,8.89340929 Z M58.5482234,21.4394688 C59.8716461,20.5924775 60.5068891,18.8455578 60.5068891,16.1987098 C60.5068891,13.6047987 59.8187092,11.910816 58.4952864,11.0108877 C57.1718637,10.1638963 55.795504,9.68746369 54.4191443,9.68746369 C53.0427846,9.68746369 51.6664249,10.1109594 50.3430022,11.0108877 C49.0195794,11.8578791 48.3313996,13.6047987 48.3313996,16.1987098 C48.3313996,18.8455578 48.9666425,20.6454144 50.2900653,21.4394688 C51.613488,22.2864602 52.9898477,22.7099559 54.4191443,22.7099559 C55.9013778,22.7099559 57.2248006,22.2864602 58.5482234,21.4394688 Z" id="形状"></path>
            <path d="M70.2472806,10.1638963 C69.5591008,10.4285811 69.1885424,10.9579507 69.1885424,11.7520051 C69.1885424,12.2813747 69.4002901,12.7048704 69.8237854,13.0754291 C70.2472806,13.4459879 70.6707759,13.7106727 71.200145,13.9224205 C71.7295141,14.1341683 72.4706309,14.3988531 73.5293691,14.7694119 L74.6939811,15.1399706 C75.9115301,15.5634663 76.9173314,15.881088 77.764322,16.2516467 C78.5583756,16.6222055 79.2465555,17.0986381 79.8288615,17.7338816 C80.4111675,18.3691251 80.6758521,19.1631795 80.6758521,20.1689818 L80.6758521,20.2748557 C80.6758521,22.1276493 79.9347353,23.4510733 78.5054387,24.0863168 C77.0232052,24.7744973 75.4350979,25.0921191 73.6352429,25.0921191 L66.7005076,25.0921191 L66.7005076,22.498208 L73.6881798,22.498208 C74.799855,22.498208 75.7527194,22.3393972 76.4938361,22.0217754 C77.2349529,21.7041536 77.6055112,21.174784 77.6055112,20.3807296 C77.6055112,19.6925491 77.2878898,19.1102426 76.5997099,18.6867469 C75.9115301,18.2632512 74.9057288,17.8397555 73.6352429,17.4691968 L72.5235678,17.0986381 C71.2530819,16.7280794 70.2472806,16.4104576 69.4002901,16.0398989 C68.6062364,15.6693402 67.8651197,15.1929075 67.2298767,14.557664 C66.5946338,13.9224205 66.2770123,13.1283661 66.2770123,12.1755008 L66.2770123,12.0696269 C66.2770123,10.2168333 67.0181291,8.89340929 68.4474257,8.25816577 C69.8767223,7.56998529 71.5177665,7.25236353 73.3176215,7.25236353 L79.8288615,7.25236353 L79.8288615,9.84627457 L73.2117476,9.84627457 C71.8883249,9.79333761 70.9354605,9.95214849 70.2472806,10.1638963 Z" id="路径"></path>
            <path d="M91.8455402,9.79333761 L86.8165337,9.79333761 L86.8165337,25.0921191 L83.693256,25.0921191 L83.693256,0.10587392 L86.8165337,0.10587392 L86.8165337,7.25236353 L92.3219724,7.25236353 C94.0688905,7.25236353 95.4981871,7.72879617 96.5569253,8.68166145 C97.6156635,9.63452673 98.1979695,11.1167616 98.1979695,13.0754291 L98.1979695,25.0921191 L95.1276287,25.0921191 L95.1276287,13.1283661 C95.1276287,10.9050138 94.0688905,9.79333761 91.8455402,9.79333761 Z" id="路径"></path>
            <path d="M116.090645,8.89340929 C118.049311,10.1109594 119.055112,12.5460595 119.055112,16.1987098 C119.055112,19.9572339 118.102248,22.3923341 116.143582,23.5569472 C114.184917,24.7215604 112.06744,25.3038669 109.84409,25.3038669 C107.567803,25.3038669 105.450326,24.7215604 103.544598,23.5569472 C101.638869,22.3923341 100.633067,19.9572339 100.633067,16.1987098 C100.633067,12.5460595 101.585932,10.0580224 103.544598,8.89340929 C105.503263,7.67585921 107.567803,7.09355265 109.84409,7.09355265 C112.06744,7.04061569 114.13198,7.67585921 116.090645,8.89340929 Z M113.920232,21.4394688 C115.243655,20.5924775 115.878898,18.8455578 115.878898,16.1987098 C115.878898,13.6047987 115.190718,11.910816 113.867295,11.0108877 C112.543872,10.1638963 111.167513,9.68746369 109.791153,9.68746369 C108.414793,9.68746369 107.038434,10.1109594 105.715011,11.0108877 C104.391588,11.8578791 103.703408,13.6047987 103.703408,16.1987098 C103.703408,18.8455578 104.338651,20.6454144 105.662074,21.4394688 C106.985497,22.2864602 108.361856,22.7099559 109.791153,22.7099559 C111.273387,22.7099559 112.596809,22.2864602 113.920232,21.4394688 Z" id="形状"></path>
            <path d="M132.28934,7.83467009 C133.348078,8.25816577 134.35388,9.05222017 135.20087,10.2168333 C136.047861,11.3814464 136.524293,13.0754291 136.524293,15.1929075 C136.524293,17.257449 136.153735,18.8455578 135.359681,20.0631079 C134.565627,21.227721 133.6657,22.0747124 132.554025,22.498208 C131.44235,22.9217037 130.383611,23.1334516 129.271936,23.1334516 L125.248731,23.1334516 L125.248731,30.438752 L122.284264,30.438752 L122.284264,7.19942657 L129.271936,7.19942657 C130.171864,7.19942657 131.177665,7.41117441 132.28934,7.83467009 Z M131.124728,20.2219187 C131.812908,19.904297 132.395214,19.3219904 132.871646,18.4749991 C133.348078,17.6280077 133.612763,16.5692685 133.612763,15.1929075 C133.612763,13.7106727 133.348078,12.5460595 132.871646,11.7520051 C132.342277,10.9050138 131.759971,10.3756442 131.124728,10.0580224 C130.489485,9.74040065 129.854242,9.63452673 129.324873,9.63452673 L125.301668,9.63452673 L125.301668,20.7512883 L129.324873,20.7512883 C129.854242,20.7512883 130.436548,20.5924775 131.124728,20.2219187 Z" id="形状"></path>
        </g>
        <circle id="椭圆形" fill="#944FE8" fill-rule="nonzero" transform="translate(30.3631, 30.3631) rotate(-76.7142) translate(-30.3631, -30.3631)" cx="30.3630522" cy="30.3630522" r="30.2258619"></circle>
        <g id="编组" transform="translate(8.8898, 10.416)" fill="#FFFFFF" fill-rule="nonzero">
            <path d="M39.345359,19.9572339 C38.5513053,19.1631795 38.5513053,17.8397555 39.345359,17.0457011 C40.1394126,16.2516467 41.4628354,16.2516467 42.2568891,17.0457011 C43.0509427,17.8397555 43.0509427,19.1631795 42.2568891,19.9572339 C41.4628354,20.7512883 40.1923495,20.7512883 39.345359,19.9572339 Z" id="路径"></path>
            <path d="M0.595540247,19.9572339 C-0.198513416,19.1631795 -0.198513416,17.8397555 0.595540247,17.0457011 C1.38959391,16.2516467 2.71301668,16.2516467 3.50707034,17.0457011 C4.301124,17.8397555 4.301124,19.1631795 3.50707034,19.9572339 C2.71301668,20.7512883 1.44253082,20.7512883 0.595540247,19.9572339 Z" id="路径"></path>
            <path d="M31.1401378,30.1740672 C30.6107687,30.1740672 30.1343365,29.9623194 29.7108412,29.5917607 L15.2061276,15.0870336 C13.5121465,13.3930509 12.612219,11.2226355 12.612219,8.84047233 C12.612219,6.45830913 13.5121465,4.23495681 15.2061276,2.59391104 C16.9001088,0.899928321 19.0705221,0 21.4526831,0 C23.8348441,0 26.0581943,0.899928321 27.6992386,2.59391104 L36.2750181,11.1696986 C37.0690718,11.963753 37.0690718,13.23424 36.2750181,13.9753575 C35.4809645,14.7694119 34.2104786,14.7694119 33.4693619,13.9753575 L24.8935823,5.39956993 C23.9936548,4.49964161 22.7761059,3.97027201 21.4526831,3.97027201 C20.1292603,3.97027201 18.9117114,4.49964161 18.0117839,5.39956993 C17.1118564,6.29949825 16.5824873,7.51704833 16.5824873,8.84047233 C16.5824873,10.1638963 17.1118564,11.3814464 18.0117839,12.2813747 L32.5164975,26.7861018 C33.3105511,27.5801562 33.3105511,28.8506432 32.5164975,29.5917607 C32.1459391,30.0152564 31.61657,30.1740672 31.1401378,30.1740672 Z" id="路径"></path>
            <path d="M21.4526831,39.8615309 C20.923314,39.8615309 20.4468818,39.6497831 20.0233865,39.2792244 L6.7362219,25.9920474 C5.94216824,25.197993 5.94216824,23.927506 6.7362219,23.1863885 C7.53027556,22.3923341 8.80076142,22.3923341 9.54187817,23.1863885 L22.8290428,36.4735655 C23.6230964,37.2676199 23.6230964,38.5381069 22.8290428,39.2792244 C22.4584844,39.7027201 21.9820522,39.8615309 21.4526831,39.8615309 Z" id="路径"></path>
        </g>
    </g>
</svg>