<?xml version="1.0" encoding="UTF-8"?>
<svg width="208px" height="61px" viewBox="0 0 208 61" version="1.1" xmlns="http://www.w3.org/2000/svg" xmlns:xlink="http://www.w3.org/1999/xlink">
    <title>logo-panel</title>
    <g id="页面-1" stroke="none" stroke-width="1" fill="none" fill-rule="evenodd">
        <g id="logo-panel" transform="translate(0.9509, 0.4251)" fill-rule="nonzero">
            <g id="编组" transform="translate(72.0491, 14.5749)" fill="#000000">
                <path d="M2.98371462,3.55271368e-15 L2.98371462,3.60000001 L0,3.60000001 L0,3.55271368e-15 L2.98371462,3.55271368e-15 Z M2.98371462,7.1478261 L2.98371462,24.7304348 L0,24.7304348 L0,7.1478261 L2.98371462,7.1478261 Z" id="形状"></path>
                <path d="M19.5773555,24.7304348 L19.5773555,12.9391305 C19.5773555,11.7913044 19.2632804,10.9043479 18.6874758,10.4347826 C18.1116711,9.91304348 17.2741373,9.65217392 16.2795658,9.65217392 L11.306708,9.65217392 L11.306708,24.7304348 L8.27064754,24.7304348 L8.27064754,7.09565218 L16.8030245,7.09565218 C18.582784,7.09565218 19.9437766,7.5652174 21.0430399,8.50434784 C22.0899574,9.44347827 22.6134161,10.9043479 22.6134161,12.8869565 L22.6134161,24.7304348 L19.5773555,24.7304348 Z" id="路径"></path>
                <path d="M38.4218689,24.7304348 L38.4218689,12.9391305 C38.4218689,11.7913044 38.1077937,10.9043479 37.5319891,10.4347826 C36.9561845,9.91304348 36.1186507,9.65217392 35.1240791,9.65217392 L30.1512214,9.65217392 L30.1512214,24.7304348 L27.1151609,24.7304348 L27.1151609,7.09565218 L35.6475378,7.09565218 C37.4272974,7.09565218 38.78829,7.5652174 39.8875533,8.50434784 C40.9344707,9.44347827 41.4579295,10.9043479 41.4579295,12.8869565 L41.4579295,24.7304348 L38.4218689,24.7304348 Z" id="路径"></path>
                <path d="M60.0407134,8.7652174 C61.9775107,9.96521743 62.9720822,12.3652174 62.9720822,15.9652174 C62.9720822,19.6695652 62.0298565,22.0695652 60.0930593,23.2173913 C58.1562621,24.3652175 56.0624273,24.9391305 53.8639007,24.9391305 C51.6130283,24.9391305 49.5191935,24.3652175 47.6347421,23.2173913 C45.7502908,22.0695652 44.7557192,19.6695652 44.7557192,15.9652174 C44.7557192,12.3652174 45.6979449,9.91304348 47.6347421,8.7652174 C49.5715393,7.5652174 51.6130283,6.99130436 53.8639007,6.99130436 C56.0100815,6.93913044 58.1039162,7.5652174 60.0407134,8.7652174 Z M57.8945328,21.1304348 C59.2031795,20.2956522 59.83133,18.5739131 59.83133,15.9652174 C59.83133,13.4086956 59.1508336,11.7391304 57.8421868,10.8521739 C56.5335401,10.0173913 55.1725475,9.5478261 53.8115548,9.5478261 C52.4505622,9.5478261 51.0895695,9.96521743 49.7809229,10.8521739 C48.4722761,11.6869566 47.7917798,13.4086956 47.7917798,15.9652174 C47.7917798,18.5739131 48.4199302,20.3478261 49.728577,21.1304348 C51.0372237,21.9652174 52.3982163,22.3826088 53.8115548,22.3826088 C55.2772392,22.3826088 56.585886,21.9652174 57.8945328,21.1304348 Z" id="形状"></path>
                <path d="M69.4629701,10.0173913 C68.7824738,10.2782608 68.4160527,10.8 68.4160527,11.5826087 C68.4160527,12.1043478 68.6254362,12.5217391 69.0442032,12.8869565 C69.4629701,13.252174 69.8817371,13.5130435 70.4051958,13.7217392 C70.9286545,13.9304348 71.6614967,14.1913043 72.7084141,14.5565218 L73.8600232,14.9217392 C75.0639783,15.3391305 76.0585498,15.6521739 76.8960838,16.0173913 C77.6812718,16.3826088 78.3617681,16.8521739 78.9375727,17.4782609 C79.5133772,18.1043478 79.7751066,18.8869565 79.7751066,19.8782609 L79.7751066,19.9826087 C79.7751066,21.8086957 79.0422644,23.1130435 77.6289259,23.7391304 C76.1632415,24.4173913 74.5928654,24.7304348 72.8131058,24.7304348 L65.9557968,24.7304348 L65.9557968,22.173913 L72.8654517,22.173913 C73.964715,22.173913 74.9069407,22.0173914 75.6397828,21.7043479 C76.3726251,21.3913043 76.7390461,20.8695652 76.7390461,20.0869565 C76.7390461,19.4086956 76.4249709,18.8347826 75.7444745,18.4173913 C75.0639783,18 74.0694067,17.5826087 72.8131058,17.2173913 L71.7138426,16.8521739 C70.4575416,16.4869566 69.4629701,16.173913 68.6254362,15.8086957 C67.8402481,15.4434783 67.107406,14.973913 66.4792555,14.3478261 C65.8511051,13.7217392 65.5370298,12.9391305 65.5370298,12 L65.5370298,11.8956522 C65.5370298,10.0695652 66.269872,8.7652174 67.6832106,8.13913044 C69.0965491,7.46086958 70.719271,7.1478261 72.4990306,7.1478261 L78.9375727,7.1478261 L78.9375727,9.70434784 L72.3943388,9.70434784 C71.0856921,9.65217392 70.1434665,9.80869566 69.4629701,10.0173913 Z" id="路径"></path>
                <path d="M90.8200852,9.65217392 L85.8472276,9.65217392 L85.8472276,24.7304348 L82.7588212,24.7304348 L82.7588212,0.104347826 L85.8472276,0.104347826 L85.8472276,7.1478261 L91.2911981,7.1478261 C93.0186118,7.1478261 94.4319504,7.61739131 95.4788677,8.55652175 C96.5257851,9.49565218 97.1015897,10.9565217 97.1015897,12.8869565 L97.1015897,24.7304348 L94.0655292,24.7304348 L94.0655292,12.9391305 C94.0655292,10.7478261 93.0186118,9.65217392 90.8200852,9.65217392 Z" id="路径"></path>
                <path d="M114.794494,8.7652174 C116.731291,9.96521743 117.725862,12.3652174 117.725862,15.9652174 C117.725862,19.6695652 116.783637,22.0695652 114.84684,23.2173913 C112.910043,24.3652175 110.816208,24.9391305 108.617681,24.9391305 C106.366809,24.9391305 104.272974,24.3652175 102.388523,23.2173913 C100.504072,22.0695652 99.5094993,19.6695652 99.5094993,15.9652174 C99.5094993,12.3652174 100.451726,9.91304348 102.388523,8.7652174 C104.32532,7.5652174 106.366809,6.99130436 108.617681,6.99130436 C110.816208,6.93913044 112.857697,7.5652174 114.794494,8.7652174 Z M112.648313,21.1304348 C113.95696,20.2956522 114.585111,18.5739131 114.585111,15.9652174 C114.585111,13.4086956 113.904614,11.7391304 112.595967,10.8521739 C111.28732,10.0173913 109.926328,9.5478261 108.565335,9.5478261 C107.204342,9.5478261 105.84335,9.96521743 104.534703,10.8521739 C103.226056,11.6869566 102.54556,13.4086956 102.54556,15.9652174 C102.54556,18.5739131 103.173711,20.3478261 104.482358,21.1304348 C105.791004,21.9652174 107.151996,22.3826088 108.565335,22.3826088 C110.03102,22.3826088 111.339666,21.9652174 112.648313,21.1304348 Z" id="形状"></path>
                <path d="M130.81233,7.72173914 C131.859247,8.13913044 132.85382,8.92173914 133.691353,10.0695652 C134.528887,11.2173913 135,12.8869565 135,14.973913 C135,17.0086957 134.633579,18.5739131 133.848391,19.7739131 C133.063202,20.9217392 132.173323,21.7565218 131.07406,22.173913 C129.974797,22.5913044 128.927879,22.8000001 127.828616,22.8000001 L123.85033,22.8000001 L123.85033,30 L120.918961,30 L120.918961,7.09565218 L127.828616,7.09565218 C128.718496,7.09565218 129.713067,7.30434784 130.81233,7.72173914 Z M129.660721,19.9304348 C130.341218,19.6173913 130.917022,19.0434783 131.388135,18.2086957 C131.859247,17.3739131 132.120977,16.3304348 132.120977,14.973913 C132.120977,13.5130435 131.859247,12.3652174 131.388135,11.5826087 C130.864676,10.7478261 130.288872,10.226087 129.660721,9.91304348 C129.032571,9.60000001 128.40442,9.49565218 127.880961,9.49565218 L123.902676,9.49565218 L123.902676,20.4521739 L127.880961,20.4521739 C128.40442,20.4521739 128.980225,20.2956522 129.660721,19.9304348 Z" id="形状"></path>
            </g>
            <ellipse id="椭圆形" fill="#944FE8" cx="30.2098898" cy="29.9380788" rx="30.2098898" ry="29.9380788"></ellipse>
            <g id="编组" transform="translate(9.0491, 9.5749)" fill="#FFFFFF">
                <path d="M38.5626931,20.0265604 C37.7844348,19.2297476 37.7844348,17.9017264 38.5626931,17.1049136 C39.3409512,16.3081009 40.6380482,16.3081009 41.4163064,17.1049136 C42.1945645,17.9017264 42.1945645,19.2297476 41.4163064,20.0265604 C40.6380482,20.8233731 39.3928351,20.8233731 38.5626931,20.0265604 Z" id="路径"></path>
                <path d="M0.583693639,20.0265604 C-0.194564546,19.2297476 -0.194564546,17.9017264 0.583693639,17.1049136 C1.36195182,16.3081009 2.6590488,16.3081009 3.43730698,17.1049136 C4.21556516,17.9017264 4.21556516,19.2297476 3.43730698,20.0265604 C2.6590488,20.8233731 1.4138357,20.8233731 0.583693639,20.0265604 Z" id="路径"></path>
                <path d="M30.5206918,30.2788844 C30.001853,30.2788844 29.5348981,30.0664011 29.1198271,29.6945552 L14.9036442,15.1394422 C13.2433601,13.439575 12.3613342,11.2616202 12.3613342,8.87118194 C12.3613342,6.4807437 13.2433601,4.249668 14.9036442,2.60292165 C16.5639284,0.903054449 18.6911674,0 21.0259419,0 C23.3607165,0 25.5398394,0.903054449 27.1482397,2.60292165 L35.553428,11.2084994 C36.3316862,12.0053121 36.3316862,13.2802125 35.553428,14.0239044 C34.7751699,14.8207172 33.5299568,14.8207172 32.8035825,14.0239044 L24.3983941,5.4183267 C23.5163681,4.51527225 22.3230389,3.98406375 21.0259419,3.98406375 C19.7288449,3.98406375 18.5355158,4.51527225 17.6534898,5.4183267 C16.7714638,6.32138115 16.2526251,7.5431607 16.2526251,8.87118194 C16.2526251,10.1992032 16.7714638,11.4209827 17.6534898,12.3240372 L31.8696727,26.8791501 C32.6479308,27.6759628 32.6479308,28.9508632 31.8696727,29.6945552 C31.5064855,30.119522 30.9876467,30.2788844 30.5206918,30.2788844 Z" id="路径"></path>
                <path d="M21.0259419,40 C20.5071032,40 20.0401482,39.7875166 19.6250772,39.4156707 L6.60222359,26.0823373 C5.82396541,25.2855246 5.82396541,24.0106242 6.60222359,23.2669323 C7.38048178,22.4701195 8.62569487,22.4701195 9.35206918,23.2669323 L22.3749228,36.6002656 C23.1531809,37.3970784 23.1531809,38.6719788 22.3749228,39.4156707 C22.0117356,39.8406375 21.5447807,40 21.0259419,40 Z" id="路径"></path>
            </g>
        </g>
    </g>
</svg>