<?xml version="1.0" standalone="no"?>
<!DOCTYPE svg PUBLIC "-//W3C//DTD SVG 20010904//EN"
 "http://www.w3.org/TR/2001/REC-SVG-20010904/DTD/svg10.dtd">
<svg version="1.0" xmlns="http://www.w3.org/2000/svg"
 width="1024.000000pt" height="1024.000000pt" viewBox="0 0 1024.000000 1024.000000"
 preserveAspectRatio="xMidYMid meet">
<metadata>
Created by potrace 1.16, written by Peter Selinger 2001-2019
</metadata>
<g transform="translate(0.000000,1024.000000) scale(0.100000,-0.100000)"
fill="#8B52E0" stroke="none">
<path d="M4820 10164 c-141 -9 -389 -37 -485 -54 -27 -5 -79 -14 -115 -20
-223 -37 -759 -184 -858 -236 -15 -8 -32 -14 -39 -14 -18 0 -314 -131 -458
-202 -153 -76 -254 -130 -312 -170 -23 -15 -44 -28 -48 -28 -12 0 -272 -174
-385 -258 -393 -292 -737 -631 -1017 -1003 -158 -209 -265 -371 -395 -599 -29
-50 -167 -326 -191 -380 -182 -414 -287 -752 -365 -1175 -28 -152 -36 -204
-64 -425 -17 -135 -17 -821 0 -970 80 -694 245 -1254 535 -1819 220 -428 447
-754 771 -1110 355 -388 753 -708 1218 -977 627 -364 1367 -592 2123 -655 190
-15 754 -7 940 15 330 38 688 111 912 185 48 16 108 35 133 41 52 14 149 50
340 128 282 114 686 330 896 478 198 139 252 179 344 253 420 337 802 761
1078 1195 331 518 560 1065 693 1651 11 50 24 113 29 140 29 168 39 230 49
310 6 50 16 131 23 180 17 123 17 775 0 920 -30 266 -49 393 -73 505 -5 25
-13 70 -19 100 -19 106 -94 382 -145 535 -34 100 -86 242 -95 257 -6 10 -10
23 -10 29 0 7 -25 69 -56 138 -294 660 -672 1193 -1188 1679 -716 674 -1645
1134 -2611 1293 -33 5 -87 14 -120 20 -191 31 -329 40 -645 43 -184 2 -360 2
-390 0z m545 -1724 c53 -10 191 -45 280 -69 88 -24 300 -146 410 -236 79 -64
1571 -1561 1601 -1605 42 -63 54 -106 54 -189 0 -61 -5 -84 -30 -136 -34 -71
-98 -134 -170 -167 -64 -30 -206 -30 -270 -1 -34 16 -218 193 -760 733 -815
811 -853 849 -928 896 -130 84 -343 132 -496 113 -214 -26 -323 -73 -467 -199
-63 -56 -165 -190 -193 -255 -10 -22 -22 -48 -27 -57 -30 -59 -51 -178 -51
-300 1 -70 5 -135 10 -145 5 -10 12 -35 16 -57 15 -83 89 -228 157 -306 31
-36 607 -614 1278 -1285 672 -671 1235 -1241 1252 -1267 93 -144 59 -324 -83
-438 -65 -52 -115 -70 -195 -70 -69 0 -129 20 -192 62 -38 25 -896 876 -2359
2338 -181 181 -239 246 -319 356 -40 54 -141 259 -167 339 -149 459 -71 975
201 1340 175 234 407 416 675 530 38 16 178 51 318 79 88 18 359 16 455 -4z
m3115 -2754 c80 -27 210 -143 210 -188 0 -8 5 -19 12 -26 8 -8 12 -46 12 -105
1 -83 -2 -98 -31 -157 -37 -75 -96 -135 -168 -170 -41 -20 -66 -24 -140 -24
-77 -1 -98 3 -146 26 -109 50 -175 135 -200 255 -18 85 7 193 59 261 95 125
249 175 392 128z m-6508 4 c63 -18 157 -88 193 -144 42 -66 48 -93 49 -196 1
-74 -3 -92 -28 -143 -36 -72 -90 -129 -158 -164 -47 -24 -65 -27 -148 -27
-102 -1 -154 16 -228 72 -39 30 -93 110 -112 166 -24 73 -11 195 27 271 32 61
135 143 213 168 27 10 154 7 192 -3z m990 -1021 c29 -6 69 -20 88 -32 49 -28
2335 -2313 2364 -2362 39 -68 51 -135 39 -219 -9 -64 -16 -82 -55 -133 -97
-128 -227 -181 -349 -142 -111 35 -101 26 -1286 1213 -764 765 -1157 1166
-1173 1195 -45 86 -38 235 16 322 44 70 151 144 234 160 53 10 64 10 122 -2z"/>
</g>
</svg>
