<svg width="536" height="536" fill="none" xmlns="http://www.w3.org/2000/svg"><path d="M491 369.2H163c-2.8 0-5-2.2-5-5V70c0-2.8 2.2-5 5-5h328c2.8 0 5 2.2 5 5v294.2c0 2.7-2.3 5-5 5z" fill="#E7E9FF"/><path d="M488.5 106.2v234.3c0 3.8-3.1 6.8-6.9 6.8H172.4c-3.8 0-6.9-3.1-6.9-6.8V106.2c0-3.8 3.1-6.8 6.9-6.8h309.2c1.3 0 2.5.3 3.5.9 2 1.2 3.4 3.4 3.4 5.9zm-70-23.3c0 4-3.3 7.3-7.3 7.3s-7.3-3.3-7.3-7.3 3.3-7.3 7.3-7.3c4 .1 7.3 3.3 7.3 7.3zm48.7 0c0 4-3.3 7.3-7.3 7.3s-7.3-3.3-7.3-7.3 3.3-7.3 7.3-7.3c4 .1 7.3 3.3 7.3 7.3zm-24.4 0c0 4-3.3 7.3-7.3 7.3s-7.3-3.3-7.3-7.3 3.3-7.3 7.3-7.3c4.1.1 7.3 3.3 7.3 7.3zm-225.5 3.3h-42c-1.8 0-3.2-1.4-3.2-3.2 0-1.8 1.4-3.2 3.2-3.2h42c1.8 0 3.2 1.4 3.2 3.2 0 1.8-1.4 3.2-3.2 3.2z" fill="#F3F4FF"/><path fill-rule="evenodd" clip-rule="evenodd" d="M170.944 113.366L165.5 118.5v-13a6 6 0 016-6h311a6 6 0 016 6v11l-317.556-3.134z" fill="#CDCCFC"/><path fill-rule="evenodd" clip-rule="evenodd" d="M157.16 185c-9.318 0-17.666-7.765-18.636-17.472L136 140.35h34.749l2.136 27.178c.582 9.513-6.406 17.472-15.725 17.472z" fill="#B5B4F0"/><path fill-rule="evenodd" clip-rule="evenodd" d="M191.133 185c-9.318 0-17.666-7.765-18.442-17.472l-2.136-27.178h35.75l1.553 27.178c.97 9.513-7.212 17.472-16.725 17.472z" fill="#DEE1FF"/><path fill-rule="evenodd" clip-rule="evenodd" d="M225.3 185c-9.318 0-17.472-7.765-18.054-17.472l-1.553-27.178h34.749l1.165 27.178c.388 9.513-6.988 17.472-16.307 17.472z" fill="#B5B4F0"/><path fill-rule="evenodd" clip-rule="evenodd" d="M259.273 185c-9.318 0-17.278-7.765-17.666-17.472l-1.165-27.178h35.75l.582 27.178c.388 9.513-7.988 17.472-17.501 17.472z" fill="#DEE1FF"/><path fill-rule="evenodd" clip-rule="evenodd" d="M293.44 185c-9.318 0-17.277-7.765-17.471-17.472l-.583-27.178h34.75l.194 27.178c0 9.513-7.571 17.472-16.89 17.472z" fill="#B5B4F0"/><path fill-rule="evenodd" clip-rule="evenodd" d="M327.413 185c-9.318 0-17.083-7.765-17.083-17.472l-.195-27.178h34.75l-.388 27.178c0 9.513-7.766 17.472-17.084 17.472z" fill="#DEE1FF"/><path fill-rule="evenodd" clip-rule="evenodd" d="M361.386 185c-9.318 0-16.889-7.765-16.889-17.472l.388-27.178h36.691l-2.718 27.178c-.194 9.513-7.959 17.472-17.472 17.472z" fill="#B5B4F0"/><path fill-rule="evenodd" clip-rule="evenodd" d="M395.553 185c-9.318 0-16.889-7.765-16.501-17.472l.777-27.178h36.69l-3.3 27.178c-.388 9.513-8.348 17.472-17.666 17.472z" fill="#DEE1FF"/><path fill-rule="evenodd" clip-rule="evenodd" d="M429.526 185c-9.318 0-16.695-7.765-16.113-17.472l1.553-27.178h36.497l-3.689 27.178c-.582 9.513-8.736 17.472-18.248 17.472z" fill="#B5B4F0"/><path fill-rule="evenodd" clip-rule="evenodd" d="M463.693 185c-9.318 0-16.501-7.765-15.919-17.472l1.942-27.178 36.69-.583-4.465 27.761c-.582 9.513-8.93 17.472-18.248 17.472z" fill="#DEE1FF"/><path fill-rule="evenodd" clip-rule="evenodd" d="M497.666 185c-9.318 0-16.307-7.765-15.531-17.472l2.33-27.178 34.749-.194-2.717 27.372c-.971 9.513-9.319 17.472-18.831 17.472z" fill="#B5B4F0"/><path fill-rule="evenodd" clip-rule="evenodd" d="M170.944 113.366L136 140.35c141.91 8.153 237.81 8.153 383.214-.194l-36.69-28.732-311.58 1.942z" fill="#C4C3EF"/><path d="M170.711 142.233l25.664-28.867 21.548-.194-12.036 30.866-35.176-1.805zm69.926 2.873l7.377-32.129 29.702-.194-2.194 33.197-17.22-.389-17.665-.485zm69.499 1.32l-.971-33.449 32.42-.194 3.3 33.585-34.749.058zm69.498-.446l-8.347-33.779 29.119-.194 14.366 33.002-35.138.971zm69.888-2.33l-13.784-31.837 25.237-.195 23.296 30.479-34.749 1.553z" fill="#EDEEFF"/><path fill-rule="evenodd" clip-rule="evenodd" d="M350 316.597L391.31 315l-.199 14.369H350v-12.772z" fill="#D9DCFF"/><path fill-rule="evenodd" clip-rule="evenodd" d="M411 234.597L452.31 233v14.568H411.2l-.2-12.971z" fill="#DEE1FF" fill-opacity=".3"/><path opacity=".2" fill-rule="evenodd" clip-rule="evenodd" d="M428.362 250.961l37.718-1.597-.998 12.972h-36.72v-11.375z" fill="#CDD1FF"/><g fill-rule="evenodd" clip-rule="evenodd"><path d="M363 348.111L365.395 214h76.035l-5.987 134.111H363z" fill="#E7E9FF"/><path d="M441.43 214h-3.393l-5.189 134.111h2.595L441.43 214z" fill="#DEE1FF"/><path d="M371.581 320.369v-99.783h61.267l-5.189 99.783h-56.078z" fill="#F3F4FF"/><path d="M377.369 223.779l2.395 49.492h12.572v20.356h4.989l-1.197-13.77h13.57v13.77h11.575l6.386 9.18 2.994-80.226-53.284 1.198z" fill="#DEE1FF"/></g><g clip-path="url(#clip0_55_1792)"><path opacity=".5" fill-rule="evenodd" clip-rule="evenodd" d="M323 234.511l5.663 26.515 57.294-5.336 2.498-28.016L323 234.511z" fill="#8D85EA"/><g fill-rule="evenodd" clip-rule="evenodd" fill="#9792E0"><path d="M323 234.511l65.455-6.837 2.498 25.181-64.289 6.003L323 234.511z"/><path d="M388.455 227.674L365.138 214 323 234.511l2.332-.333 39.806-19.344 21.985 13.007 1.332-.167z"/></g><path d="M343.033 249.928c-.835.096-1.586.001-2.255-.285a3.63 3.63 0 01-1.604-1.35c-.41-.622-.665-1.373-.766-2.256-.1-.874-.021-1.656.239-2.346a3.537 3.537 0 011.257-1.678c.587-.43 1.297-.692 2.132-.788a4.713 4.713 0 011.641.09c.529.117.978.315 1.348.594l-.372 1.178a3.913 3.913 0 00-1.221-.536c-.39-.1-.8-.126-1.229-.077-.818.094-1.424.433-1.816 1.018-.384.583-.519 1.372-.405 2.365.115 1.002.425 1.747.932 2.236.507.482 1.173.675 1.999.581.43-.049.823-.163 1.181-.341a4.163 4.163 0 001.067-.811l.629 1.064c-.297.356-.69.655-1.178.896a4.865 4.865 0 01-1.579.446zm4.191-.589l-1.005-8.774 1.478-.17 1.005 8.775-1.478.169zm5.85-.573c-.612.07-1.167.005-1.665-.196a2.671 2.671 0 01-1.198-.962c-.301-.448-.488-.991-.56-1.627-.073-.635-.013-1.202.179-1.699.2-.506.516-.913.948-1.22.439-.308.965-.497 1.577-.567.604-.069 1.151-.003 1.642.198.49.202.885.527 1.186.976.308.44.499.977.572 1.613.072.636.009 1.207-.191 1.713a2.602 2.602 0 01-.936 1.206c-.432.308-.95.496-1.554.565zm-.146-1.167c.509-.058.875-.265 1.1-.621.232-.365.311-.873.236-1.525-.073-.644-.264-1.117-.573-1.42-.309-.311-.71-.438-1.203-.382-.501.058-.867.273-1.098.646-.232.364-.311.869-.237 1.512.074.652.262 1.13.563 1.434.307.295.711.413 1.212.356zm6.677.419c-1.089.125-1.985-.031-2.687-.465l.297-1.097a3.633 3.633 0 002.288.462c.357-.041.625-.132.802-.273.185-.142.265-.32.241-.535a.515.515 0 00-.252-.406c-.148-.095-.39-.164-.725-.207l-1.027-.111c-1.124-.113-1.737-.611-1.838-1.493a1.583 1.583 0 01.2-1.001c.173-.31.438-.566.793-.767.356-.202.78-.331 1.273-.388.429-.049.85-.029 1.263.061.412.082.783.228 1.113.44l-.325 1.064c-.655-.376-1.3-.527-1.936-.455-.342.04-.601.134-.777.283a.6.6 0 00-.226.557c.02.175.091.308.214.398.132.09.34.154.627.194l1.051.109c.611.067 1.069.228 1.372.483.31.247.491.596.543 1.049.063.557-.109 1.023-.516 1.4-.408.377-.997.609-1.768.698zm8.689-4.064l-4.149.476c.106.64.32 1.099.641 1.376.329.268.779.369 1.352.304.659-.076 1.247-.36 1.762-.854l.546.976c-.259.263-.592.49-.996.682a4.082 4.082 0 01-1.241.347c-.985.113-1.792-.076-2.42-.568-.628-.492-.998-1.222-1.109-2.192-.07-.612-.009-1.171.182-1.676.192-.505.496-.914.911-1.227a2.873 2.873 0 011.467-.579c.827-.095 1.51.101 2.048.587.546.477.873 1.184.98 2.122l.026.226zm-2.895-1.866c-.397.045-.71.202-.937.469-.22.259-.34.615-.36 1.068l2.801-.32c-.099-.448-.278-.774-.534-.978-.249-.205-.573-.285-.97-.239zm9.246-4.78l1.006 8.775-1.467.168-.11-.966a1.988 1.988 0 01-.697.877c-.321.222-.7.358-1.137.408a2.497 2.497 0 01-1.428-.235 2.675 2.675 0 01-1.081-.999c-.278-.459-.453-.999-.524-1.619-.071-.62-.022-1.177.147-1.672.169-.494.441-.892.818-1.192a2.523 2.523 0 011.349-.554c.43-.049.822-.001 1.176.143.362.136.653.356.873.661l-.415-3.624 1.49-.171zm-2.146 8.049c.493-.057.855-.271 1.086-.644.239-.373.323-.874.251-1.502-.072-.628-.263-1.097-.572-1.408-.309-.311-.711-.438-1.203-.382-.501.058-.871.273-1.11.647-.232.365-.312.857-.241 1.477.072.628.263 1.101.573 1.42.318.318.724.448 1.216.392z" fill="#fff"/></g><path d="M116.593 413.784v14.971l27.1-1.093v-13.878h-27.1zm-62.725-1.639v14.971l25.134-1.093v-13.878H53.868z" fill="#FDCD9E"/><path d="M108.507 247.466s19.56 32.127 31.143 83.596c10.6 46.88 12.895 85.782 12.895 85.782h-45.787s-5.136-38.247-6.447-53.436c-1.312-15.189-5.901-35.405-5.901-35.405s-6.338 87.311-7.759 88.841c-1.53 1.53-45.35.328-44.912-1.639.437-1.967 13.878-146.867 15.08-156.374 3.606-29.395 51.688-11.365 51.688-11.365z" fill="#9792E0"/><path d="M85.23 451.812c0 2.623-.874 5.683-2.622 6.447-1.748.765-15.954 2.295-28.302 1.203-11.911-1.093-14.316-1.967-15.19-3.06-.437-.547.437-3.169 1.312-5.792.109-.109.109-.328.109-.437.437-1.311.983-2.513 1.311-3.387.328-.875.765-1.64 1.312-2.405 1.31-1.857 3.824-5.682 4.48-7.54.874-2.622 2.185-8.305 3.06-10.927.874-2.623 3.06-3.169 3.06-3.169s24.368-1.749 26.116-.219c1.749 1.53 2.623 13.988 2.623 15.845v1.858c0 1.748 1.202 5.245 1.967 8.086.218.765.328 1.421.437 1.967.328.547.328 1.093.328 1.53zm102.174 5.355c-1.639.655-70.92 2.622-72.559 0-.438-.765-.875-3.497-1.093-6.885-.547-8.086-.547-19.997-.547-19.997s-.546-4.043-.437-6.01c.11-1.858 33.439-1.202 33.439-1.202l21.636 17.702s5.901-1.092 12.458 0c3.388.547 5.682 4.918 6.775 9.07.984 3.606 1.093 6.994.328 7.322z" fill="#EFAE52"/><path d="M187.404 457.167c-1.639.656-70.92 2.623-72.56 0-.437-.765-.874-3.497-1.092-6.884 13.222.983 45.568 2.841 73.324-.438.983 3.607 1.093 6.994.328 7.322zM85.23 451.812c0 2.623-.874 5.683-2.622 6.448-1.748.765-15.954 2.294-28.302 1.202-11.911-1.093-14.316-1.967-15.19-3.06-.437-.546.437-3.169 1.312-5.792 11.037.875 30.925 1.64 44.038-2.404.218.765.328 1.421.437 1.967.328.656.328 1.202.328 1.639z" fill="#8B558E"/><path d="M54.524 435.53c-.218 0-.328-.109-.437-.328-.11-.218.11-.437.328-.546.437-.109 9.835-2.732 14.752-1.858l3.388.656c-2.514-1.967-8.415-6.01-11.911-4.371-.219.109-.438 0-.547-.219-.109-.218 0-.437.219-.546 5.136-2.295 13.66 5.245 14.096 5.573.11.109.219.328.11.437-.11.219-.219.219-.437.219l-4.918-.875c-4.808-.874-14.315 1.749-14.424 1.749-.11.109-.219.109-.219.109zm108.183 1.311l-12.348-1.311c-.109 0-.328-.109-.328-.218-.109-.11 0-.328.11-.437l4.261-5.246c.11-.218.437-.218.547-.109.218.109.218.437.109.546l-3.825 4.699 11.584 1.202c.218 0 .437.219.327.437 0 .328-.218.437-.437.437z" fill="#5D2866"/><path d="M57.475 279.921c-.11 0-.219-.109-.328-.219-.11-.218-.11-.437.109-.546 7.65-5.573 9.616-13.55 9.726-13.659 0-.219.218-.328.546-.328.218 0 .328.218.328.546-.11.328-2.076 8.414-9.944 14.097-.328.109-.328.109-.437.109z" fill="#FCBC49"/><path d="M198.744 208H177.3c-.852 0-1.42-.639-1.278-1.491l3.905-33.018c.071-.852.852-1.491 1.633-1.491h21.444c.852 0 1.42.639 1.278 1.491l-3.905 33.018c-.071.781-.852 1.491-1.633 1.491z" fill="#9792E0"/><path d="M197.621 205.648h-18.642c-.74 0-1.234-.556-1.111-1.296l3.395-28.704c.062-.74.741-1.296 1.42-1.296h18.642c.74 0 1.234.556 1.111 1.296l-3.395 28.704c-.062.679-.741 1.296-1.42 1.296z" fill="#DEE1FF"/><path d="M196.11 202.733l.334-4.272c.013-.169-.24-.303-.592-.302l-13.621-.282c-.351-.013-.625.122-.638.277l-.334 4.272c-.013.17.241.304.593.303l13.62.282c.322.011.626-.122.638-.278z" fill="#9792E0"/><path d="M199.838 182.358l.441-5.64c.017-.225-.285-.398-.707-.394l-16.302-.241c-.42-.014-.75.167-.766.373l-.441 5.64c-.017.225.285.399.707.394l16.302.241c.385.011.75-.167.766-.373zm-8.044 4.727l.277-3.555c.011-.141-.15-.248-.376-.242l-8.753-.033c-.226-.006-.404.11-.414.24l-.278 3.554c-.011.141.15.249.376.243l8.753.033c.207.004.404-.111.415-.24z" fill="#D0D4FF"/><path d="M157.687 198.921s11.242-15.79 16.674-16.169c5.431-.379 16.168 5.558 14.021 8.211-2.274 2.653-10.863 1.516-10.863 1.516s.505 9.474-10.358 10.358c-10.864.758-9.474-3.916-9.474-3.916z" fill="#FDCD9E"/><path d="M132.423 292.017h-19.579l-17.179-13.642 1.39-13.138.378-3.284.632-5.684.126-1.263 1.39-13.769 1.389-13.389 1.642-15.285 1.39-13.642.884-8.716.127-1.516c.378.505 3.915 5.053 9.726 28.295 1.137 4.674 2.653 10.737 4.295 17.685.126.379.126.884.252 1.263a516.61 516.61 0 011.516 6.568l1.137 4.548a559.92 559.92 0 011.516 6.695c.126.631.252 1.136.379 1.768.126.379.126.758.252 1.011.379 1.768.758 3.41 1.137 5.179.379 1.515.758 3.031 1.011 4.547 2.4 9.348 4.547 18.316 6.189 25.769z" fill="#7C6053"/><path d="M55.37 262.332s17.937 3.537 34.358 3.285c16.421-.379 23.622-3.285 23.622-3.285s-4.043-67.58-8.337-73.643c-7.453-10.484-26.148-12.379-34.611-11.621-13.39 1.137-14.653 6.695-15.032 16.674-.253 9.474 0 68.59 0 68.59z" fill="#FFBF69"/><path d="M89.855 178.837s18.063 46.99 21.979 60.506l3.916 13.515-5.558-49.011-6.569-16.926s-5.937-6.19-13.769-8.084z" fill="#7C6053"/><path d="M97.307 182.121s18.443 15.284 30.822 16.042c12.379.758 34.611-7.705 34.611-7.705l7.579 30.316s-20.843 13.768-39.917 13.895l-18.947.126s-6.442-41.811-14.148-52.674z" fill="#7C6053"/><path d="M133.813 210.037c-1.011 0-1.895-.379-2.4-1.137-2.274-2.905-.632-10.484-.632-10.737 0-.126.127-.253.379-.379.127 0 .379 0 .506.253.631.884 5.557 8.463 4.042 11.116-.253.379-.758.884-1.895.884zm-2.4-10.737c-.379 2.147-.884 6.947.631 8.969.379.505 1.011.757 1.643.757.884 0 1.01-.379 1.136-.505.885-1.389-1.389-6.063-3.41-9.221z" fill="#fff"/><path d="M95.539 144.604s2.526-9.726-3.663-11.747c-13.769-4.547-22.611 10.484-22.611 10.484s-7.2-.252-5.684 7.832c1.515 8.716 8.715 10.358 8.715 10.358l23.243-16.927z" fill="#000"/><path d="M74.444 164.31l-1.01 12.379s1.894 3.79 9.094 4.927c5.305.884 7.327-.127 7.327-.127l-.253-6.316-.253-6.189-12.758-3.916-2.147-.758z" fill="#FDCD9E"/><path d="M76.591 164.942c0 .379.127.758.253 1.263 2.274 6.442 9.6 8.337 12.758 8.842l-.253-6.19-12.758-3.915z" fill="#000"/><path d="M94.528 141.068s5.18 16.042 1.895 24.379c-3.284 8.337-10.99 6.19-15.537 4.042-4.547-2.147-6.442-5.179-6.442-5.179s-4.548 1.011-7.074-3.284c-2.526-4.421-.253-8.842 2.4-9.727 2.653-.884 5.432 1.264 5.432 1.264l-1.895-4.674s12.126-21.727 21.221-6.821z" fill="#FDCD9E"/><path d="M74.191 159.131c-.126 0-.252 0-.252-.126l-5.18-4.422c-.126-.126-.252-.505 0-.631.127-.126.506-.253.632 0l5.18 4.421c.125.126.252.505 0 .632-.127.126-.254.126-.38.126z" fill="#000"/><path d="M69.138 158.626c-.252 0-.379-.127-.379-.379 0-.253.127-.506.38-.506l3.789-.631c.253 0 .505.126.505.379 0 .252-.126.505-.379.505l-3.916.632zm15.159-10.611c-.127 0-.127 0-.253-.126-.253-.127-.253-.379-.126-.632 1.515-2.274 3.79-1.895 4.8-1.516.252.127.252.379.252.632-.126.253-.379.379-.631.253-.126 0-2.148-1.011-3.663 1.136-.127.127-.253.253-.38.253zm11.368-.884c-.126 0-.253 0-.253-.127-1.263-1.263-2.652-.505-2.779-.505-.252.127-.505 0-.631-.252-.126-.253 0-.506.253-.632.126 0 2.02-1.011 3.79.632.125.126.125.505 0 .631-.127.126-.254.253-.38.253zm-2.779 11.874h-.126c-.253-.127-.38-.379-.253-.632 1.895-4.547-.631-6.947-.631-6.947-.127-.127-.253-.506 0-.632.126-.126.505-.253.631 0 .126.126 3.032 2.779.884 7.958-.252.253-.379.253-.505.253zm2.274-6.064c-.253 0-.38-.126-.38-.378l-.504-2.906c0-.252.126-.505.379-.505.252 0 .505.126.505.379l.505 2.905c0 .253-.253.505-.505.505zm-7.832-.505c-.252 0-.379-.126-.379-.379l-.505-2.905c0-.253.126-.505.379-.505s.505.126.505.379l.505 2.905c0 .253-.252.505-.505.505z" fill="#000"/><path d="M95.539 144.604s-1.137-2.652-4.169-2.905c-3.031-.252-5.052 1.769-5.052 1.769s.884 5.305-3.537 7.705c-4.421 2.4-7.58 1.389-7.58 1.389l-2.904-1.389-1.895-4.674 9.6-8.716 9.6-4.042 5.305 2.274.632 8.589z" fill="#000"/><path d="M85.56 182.752c-6.442 0-12.127-5.558-12.506-5.81-.126-.127-.126-.506 0-.632s.505-.126.632 0c.126.126 8.337 8.084 15.916 4.674.252-.127.505 0 .631.252.127.253 0 .506-.252.632a11.045 11.045 0 01-4.421.884z" fill="#fff"/><path d="M89.98 164.815c-.252 0-.63-.126-1.01-.252-1.516-.885-2.273-3.79-2.4-3.916 0-.126 0-.379.127-.505a.383.383 0 01.505 0l4.926 2.526c.126 0 .253.126.253.253 0 .126 0 .252-.127.379.127.252-1.01 1.515-2.273 1.515zm-2.147-3.284c.38.884.885 1.895 1.642 2.4.632.379 1.516-.126 1.895-.505l-3.537-1.895z" fill="#000"/><path d="M128.381 292.017H50.949c1.263-15.032 2.779-26.274 4.42-29.685 1.138-2.4 3.411-4.042 6.317-5.305 5.179-2.148 12.379-2.653 19.705-2.4a159.35 159.35 0 0116.548 1.642c1.137.126 2.274.379 3.41.505h.253c5.937 1.011 9.979 2.021 9.979 2.021s.758 1.263 1.895 3.537c.126.253.379.632.505 1.011 3.032 5.684 8.842 16.547 14.4 28.674z" fill="#9792E0"/><path d="M81.644 251.09l-.127 3.537-.379 6.442-.252 4.295L78.5 308.5l-38-8c2.4-17.811 6.407-41.831 7.922-49.536a279.83 279.83 0 011.01-5.053l5.811 1.011 26.4 4.168z" fill="#7C6053"/><path d="M94.41 328.44a.47.47 0 01-.437-.437c0-.219 1.42-19.014 1.858-27.319.437-8.305.437-12.349.437-12.349 0-.109.109-.327.218-.327l14.862-6.885c.218-.109.437 0 .546.219.109.218 0 .437-.219.546l-14.642 6.775c0 .984-.11 5.027-.438 12.13-.437 8.305-1.857 27.21-1.857 27.319.109.109-.11.328-.328.328z" fill="#8B558E"/><g fill="#EDEEFF"><rect x="189.714" y="172.857" width=".659" height=".659" rx=".33"/><rect x="190.914" y="172.857" width="3.3" height=".66" rx=".33"/></g><path d="M101.223 239.469s15.032-4.8 18.19-3.411c3.158 1.263 8.084 2.653 8.084 4.042 0 2.527-4.547 1.516-7.705 2.906-3.032 1.389 5.81 7.2 10.105 7.958 4.295.758 11.495-1.264 11.369 1.515 0 1.895-3.285 4.801-7.074 5.306-3.79.631-12.884-2.021-12.884-2.021l-20.085-16.295z" fill="#FDCD9E"/><path d="M97.434 254.627s19.326 11.495 26.4 11.874c7.074.379 15.537-4.674 15.537-8.464 0-3.789-5.558-1.515-5.558-1.515l-13.516-1.264-15.411-13.137-5.684-.884-1.768 13.39z" fill="#FDCD9E"/><path d="M133.308 257.027c-5.179 0-9.6-2.653-9.853-2.779-.253-.126-.253-.379-.126-.632.126-.252.379-.252.631-.126.127 0 7.074 4.169 13.516 2.021.253-.126.505 0 .632.253.126.252 0 .505-.253.631-1.642.379-3.158.632-4.547.632zm.505 6.695c-5.305 0-12.379-2.779-12.632-2.906-.252-.126-.379-.378-.252-.631.126-.253.379-.379.631-.253.126 0 7.2 2.779 12.379 2.779.253 0 .506.253.506.506 0 .252-.379.505-.632.505z" fill="#000"/><path d="M73.56 174.794S31.748 178.836 32 221.405c.127 44.59 68.464 40.422 68.464 40.422l7.074-32.211-38.022-10.484 4.043-44.338z" fill="#7C6053"/><path d="M69.517 219.637c-.631-.126-14.02-2.653-16.168-5.937-.253-.505-.38-.884-.253-1.389.127-.506.38-.758.884-1.011 3.032-1.137 14.527 6.568 15.916 7.453.127.126.253.379.127.505-.127.379-.38.379-.506.379zm-14.779-7.453c-.252 0-.379 0-.505.127-.126.126-.253.126-.253.378 0 .253 0 .506.127.632 1.39 2.021 8.716 4.042 13.263 5.053-4.421-2.906-10.358-6.19-12.632-6.19zm130.271-10.924a1.316 1.316 0 01-.593-.139.947.947 0 01-.387-.373 1.13 1.13 0 01-.126-.567c.003-.215.051-.401.144-.559a.934.934 0 01.4-.364c.173-.084.372-.123.596-.12.222.004.416.05.584.139a.91.91 0 01.383.377c.091.16.134.348.131.563a1.125 1.125 0 01-.149.563.913.913 0 01-.395.36 1.276 1.276 0 01-.588.12zm.002-.396c.186.003.329-.049.427-.158.1-.111.153-.277.156-.498.004-.218-.043-.384-.14-.498a.522.522 0 00-.417-.181c-.184-.003-.326.053-.427.167-.101.111-.153.276-.157.494-.003.22.042.388.137.502.097.112.237.169.421.172zm2.877-1.68a.923.923 0 01.839.53c.082.163.122.349.118.559-.003.21-.047.393-.131.551a.873.873 0 01-.351.361.98.98 0 01-.51.121.955.955 0 01-.426-.1.697.697 0 01-.285-.271l-.019 1.198-.542-.008.038-2.332a4.268 4.268 0 00-.026-.577l.512.008.038.352a.623.623 0 01.288-.29.93.93 0 01.457-.102zm-.177 1.724c.184.003.326-.051.427-.162.101-.112.153-.272.156-.482.004-.212-.043-.378-.14-.498a.511.511 0 00-.417-.189c-.186-.003-.33.053-.431.167-.101.114-.153.278-.157.494-.003.212.044.377.141.494.097.115.238.173.421.176zm3.543-.572l-1.521-.024c.008.218.063.38.167.487.106.103.264.157.473.161.242.003.468-.065.677-.207l.152.349a1.307 1.307 0 01-.392.183 1.56 1.56 0 01-.465.061c-.361-.005-.644-.104-.847-.296-.204-.191-.304-.451-.298-.779a1.11 1.11 0 01.144-.551.955.955 0 01.387-.369c.164-.088.35-.131.557-.128.303.005.54.101.712.286.175.183.26.433.255.751l-.001.076zm-.959-.749a.523.523 0 00-.36.115.562.562 0 00-.181.34l1.028.016a.537.537 0 00-.148-.349.472.472 0 00-.339-.122zm2.702-.32c.528.009.787.293.778.852l-.02 1.25-.547-.008.02-1.227c.003-.161-.029-.278-.095-.352-.066-.076-.168-.116-.308-.118a.551.551 0 00-.405.143.51.51 0 00-.159.384l-.019 1.154-.542-.009.024-1.46a4.26 4.26 0 00-.026-.577l.512.008.034.335a.77.77 0 01.31-.281.963.963 0 01.443-.094z" fill="#fff"/><g fill-rule="evenodd" clip-rule="evenodd"><path opacity=".2" d="M219.638 234.251l36.593-1.421v12.79h-36.593v-11.369z" fill="#CDD1FF"/><path opacity=".7" d="M212 221.462l40.323.355v10.48L212 232.83v-11.368z" fill="#D9DCFF"/><path d="M227.039 275.753L225.653 209h67.05l-1.585 65.961-64.079.792z" fill="#E7E9FF"/><path d="M229.812 272.287l58.236-.595 1.288-59.325h-60.415l.891 59.92z" fill="#F3F4FF"/><path d="M229.812 272.287l-.891-59.92h1.486v59.92h-.595z" fill="#DEE1FF"/><path d="M222.681 274.961l.099 2.575H293v-3.367l-70.319.792z" fill="#CCD0FF"/><path opacity=".7" d="M227.039 277.536l2.674 5.348 59.919-.099 2.873-5.249h-65.466z" fill="#CCD0FF"/><path opacity=".6" d="M243 216.267l2.416 30.076h11.098l.805 11.657h2.148l-.985-8.987h13.067l.626 8.987h2.595l.358-14.771 13.156-2.403L289 216l-46 .267z" fill="#DEE1FF"/></g><defs><clipPath id="clip0_55_1792"><path fill="#fff" transform="translate(323 214)" d="M0 0h67.953v47.026H0z"/></clipPath></defs></svg>