<?xml version="1.0" encoding="UTF-8"?>
<svg width="960px" height="796px" viewBox="0 0 960 796" version="1.1" xmlns="http://www.w3.org/2000/svg" xmlns:xlink="http://www.w3.org/1999/xlink">
    <title>no-data</title>
    <defs>
        <linearGradient x1="50%" y1="-29.88559%" x2="50%" y2="44.050124%" id="linearGradient-1">
            <stop stop-color="#CFDFFA" offset="0%"></stop>
            <stop stop-color="#EAF0FC" stop-opacity="0" offset="100%"></stop>
        </linearGradient>
        <linearGradient x1="50%" y1="33.748463%" x2="53.6227%" y2="69.82291%" id="linearGradient-2">
            <stop stop-color="#CFDFFA" offset="0%"></stop>
            <stop stop-color="#EAF0FC" stop-opacity="0" offset="100%"></stop>
        </linearGradient>
        <linearGradient x1="50%" y1="36.47456%" x2="53.6227%" y2="66.49774%" id="linearGradient-3">
            <stop stop-color="#CFDFFA" offset="0%"></stop>
            <stop stop-color="#EAF0FC" stop-opacity="0" offset="100%"></stop>
        </linearGradient>
        <linearGradient x1="50%" y1="11.497374%" x2="57.28025%" y2="100%" id="linearGradient-4">
            <stop stop-color="#BFD4FA" offset="0%"></stop>
            <stop stop-color="#5792F0" offset="100%"></stop>
        </linearGradient>
        <linearGradient x1="50%" y1="11.497374%" x2="51.94009%" y2="131.88101%" id="linearGradient-5">
            <stop stop-color="#BFD4FA" offset="0%"></stop>
            <stop stop-color="#5792F0" offset="100%"></stop>
        </linearGradient>
        <linearGradient x1="50%" y1="13.0877%" x2="74.28279%" y2="128.49897%" id="linearGradient-6">
            <stop stop-color="#BFD4FA" offset="0%"></stop>
            <stop stop-color="#5792F0" offset="100%"></stop>
        </linearGradient>
        <linearGradient x1="50%" y1="11.497374%" x2="54.073364%" y2="131.88101%" id="linearGradient-7">
            <stop stop-color="#BFD4FA" offset="0%"></stop>
            <stop stop-color="#5792F0" offset="100%"></stop>
        </linearGradient>
        <linearGradient x1="50%" y1="11.497374%" x2="51.97958%" y2="131.88101%" id="linearGradient-8">
            <stop stop-color="#BFD4FA" offset="0%"></stop>
            <stop stop-color="#5792F0" offset="100%"></stop>
        </linearGradient>
        <linearGradient x1="50%" y1="11.497374%" x2="55.36437%" y2="131.88101%" id="linearGradient-9">
            <stop stop-color="#BFD4FA" offset="0%"></stop>
            <stop stop-color="#5792F0" offset="100%"></stop>
        </linearGradient>
        <linearGradient x1="50%" y1="48.259088%" x2="74.28279%" y2="53.702277%" id="linearGradient-10">
            <stop stop-color="#BFD4FA" offset="0%"></stop>
            <stop stop-color="#5792F0" offset="100%"></stop>
        </linearGradient>
        <linearGradient x1="54.43079%" y1="-30.3765121%" x2="51.898575%" y2="74.8966607%" id="linearGradient-11">
            <stop stop-color="#5792F0" offset="0%"></stop>
            <stop stop-color="#BFD4FA" stop-opacity="0" offset="100%"></stop>
        </linearGradient>
        <linearGradient x1="17.923276%" y1="31.15871%" x2="121.16245%" y2="108.36043%" id="linearGradient-12">
            <stop stop-color="#BFD4FA" offset="0%"></stop>
            <stop stop-color="#5792F0" offset="100%"></stop>
        </linearGradient>
        <linearGradient x1="17.923276%" y1="8.3671875%" x2="100%" y2="91.632813%" id="linearGradient-13">
            <stop stop-color="#BFD4FA" offset="0%"></stop>
            <stop stop-color="#5792F0" offset="100%"></stop>
        </linearGradient>
        <linearGradient x1="64.565367%" y1="119.70572%" x2="20.470951%" y2="-62.98311%" id="linearGradient-14">
            <stop stop-color="#BFD4FA" offset="0%"></stop>
            <stop stop-color="#5792F0" offset="100%"></stop>
        </linearGradient>
        <linearGradient x1="-0.09190682%" y1="-61.9411%" x2="50%" y2="116.92742%" id="linearGradient-15">
            <stop stop-color="#5792F0" offset="0%"></stop>
            <stop stop-color="#BFD4FA" offset="100%"></stop>
        </linearGradient>
        <linearGradient x1="17.923276%" y1="36.389413%" x2="121.16245%" y2="92.158455%" id="linearGradient-16">
            <stop stop-color="#BFD4FA" offset="0%"></stop>
            <stop stop-color="#5792F0" offset="100%"></stop>
        </linearGradient>
        <linearGradient x1="17.923276%" y1="32.441702%" x2="40.309775%" y2="99.80808%" id="linearGradient-17">
            <stop stop-color="#BFD4FA" offset="0%"></stop>
            <stop stop-color="#5792F0" offset="100%"></stop>
        </linearGradient>
        <linearGradient x1="63.649595%" y1="56.99737%" x2="25.836748%" y2="138.50888%" id="linearGradient-18">
            <stop stop-color="#BFD4FA" stop-opacity="0.5" offset="0%"></stop>
            <stop stop-color="#5792F0" offset="100%"></stop>
            <stop stop-color="#5792F0" offset="100%"></stop>
        </linearGradient>
        <linearGradient x1="93.27639%" y1="53.27356%" x2="-26.6102%" y2="91.40684%" id="linearGradient-19">
            <stop stop-color="#BFD4FA" stop-opacity="0.5" offset="0%"></stop>
            <stop stop-color="#5792F0" offset="100%"></stop>
            <stop stop-color="#5792F0" offset="100%"></stop>
        </linearGradient>
        <linearGradient x1="93.27639%" y1="53.88234%" x2="-26.6102%" y2="99.10727%" id="linearGradient-20">
            <stop stop-color="#BFD4FA" stop-opacity="0.5" offset="0%"></stop>
            <stop stop-color="#5792F0" offset="100%"></stop>
            <stop stop-color="#5792F0" offset="100%"></stop>
        </linearGradient>
        <linearGradient x1="93.27639%" y1="52.00922%" x2="-26.6102%" y2="75.41437%" id="linearGradient-21">
            <stop stop-color="#BFD4FA" stop-opacity="0.5" offset="0%"></stop>
            <stop stop-color="#5792F0" offset="100%"></stop>
            <stop stop-color="#5792F0" offset="100%"></stop>
        </linearGradient>
        <linearGradient x1="93.27639%" y1="51.26448%" x2="-26.6102%" y2="65.99432%" id="linearGradient-22">
            <stop stop-color="#BFD4FA" stop-opacity="0.5" offset="0%"></stop>
            <stop stop-color="#5792F0" offset="100%"></stop>
            <stop stop-color="#5792F0" offset="100%"></stop>
        </linearGradient>
        <linearGradient x1="17.923276%" y1="18.657549%" x2="121.16245%" y2="147.08246%" id="linearGradient-23">
            <stop stop-color="#BFD4FA" offset="0%"></stop>
            <stop stop-color="#5792F0" offset="100%"></stop>
        </linearGradient>
        <linearGradient x1="17.923276%" y1="36.404634%" x2="121.16245%" y2="92.111313%" id="linearGradient-24">
            <stop stop-color="#BFD4FA" offset="0%"></stop>
            <stop stop-color="#5792F0" offset="100%"></stop>
        </linearGradient>
        <linearGradient x1="61.69655%" y1="56.99737%" x2="29.294136%" y2="138.50888%" id="linearGradient-25">
            <stop stop-color="#BFD4FA" stop-opacity="0.5" offset="0%"></stop>
            <stop stop-color="#5792F0" offset="100%"></stop>
            <stop stop-color="#5792F0" offset="100%"></stop>
        </linearGradient>
        <linearGradient x1="93.27639%" y1="53.30781%" x2="-26.6102%" y2="91.840035%" id="linearGradient-26">
            <stop stop-color="#BFD4FA" stop-opacity="0.5" offset="0%"></stop>
            <stop stop-color="#5792F0" offset="100%"></stop>
            <stop stop-color="#5792F0" offset="100%"></stop>
        </linearGradient>
        <linearGradient x1="50%" y1="12.924309%" x2="50%" y2="100%" id="linearGradient-27">
            <stop stop-color="#FFCDA5" offset="0%"></stop>
            <stop stop-color="#FFE8D1" offset="100%"></stop>
        </linearGradient>
        <linearGradient x1="42.31456%" y1="0%" x2="88.72%" y2="100%" id="linearGradient-28">
            <stop stop-color="#FFF2DF" offset="0%"></stop>
            <stop stop-color="#FEE0BC" offset="100%"></stop>
        </linearGradient>
        <linearGradient x1="85.65252%" y1="11.709897%" x2="0%" y2="73.63269%" id="linearGradient-29">
            <stop stop-color="#BFD4FA" offset="0%"></stop>
            <stop stop-color="#5792F0" offset="100%"></stop>
        </linearGradient>
        <linearGradient x1="172.42553%" y1="42.050338%" x2="10.2765284%" y2="74.58035%" id="linearGradient-30">
            <stop stop-color="#BFD4FA" offset="0%"></stop>
            <stop stop-color="#5792F0" offset="100%"></stop>
        </linearGradient>
        <linearGradient x1="160.3088%" y1="52.47973%" x2="-6.291448%" y2="50%" id="linearGradient-31">
            <stop stop-color="#BFD4FA" offset="0%"></stop>
            <stop stop-color="#5792F0" offset="100%"></stop>
        </linearGradient>
        <linearGradient x1="50%" y1="0%" x2="50%" y2="100%" id="linearGradient-32">
            <stop stop-color="#FEE127" offset="0%"></stop>
            <stop stop-color="#F9AB21" offset="100%"></stop>
        </linearGradient>
        <linearGradient x1="8.339227%" y1="32.454246%" x2="95.46624%" y2="73.64215%" id="linearGradient-33">
            <stop stop-color="#FEE127" offset="0%"></stop>
            <stop stop-color="#F9AB21" offset="100%"></stop>
        </linearGradient>
    </defs>
    <g id="页面-1" stroke="none" stroke-width="1" fill="none" fill-rule="evenodd">
        <g id="编组">
            <g>
                <polygon id="椭圆形" fill="url(#linearGradient-1)" points="960 656 959.73 660.62 958.96 665.212 957.67 669.776 955.87 674.3344 953.55 678.8872 950.69 683.44 947.44 687.8192 943.69 692.1816 939.44 696.5328 934.67 700.884 929.35 705.2296 923.46 709.5752 916.16 714.4528 908.14 719.2968 899.36 724.1184 889.77 728.9064 879.35 733.672 868.9 738.0624 857.71 742.3912 845.76 746.6584 833 750.864 819.41 754.9968 805.84 758.7992 791.72 762.4616 777.04 765.9728 761.77 769.344 746.46 772.4464 730.69 775.3864 714.45 778.164 697.71 780.7736 680.98 783.1368 663.88 785.3208 646.41 787.32 628.54 789.1288 610.7 790.7136 592.59 792.0968 574.21 793.2784 555.54 794.2584 536.91 795.0144 518.11 795.5576 499.14 795.888 480 796 460.86 795.888 441.89 795.5576 423.09 795.0144 404.46 794.2584 385.79 793.2784 367.41 792.0968 349.3 790.7136 331.46 789.1288 313.59 787.32 296.12 785.3208 279.02 783.1368 262.29 780.7736 245.55 778.164 229.31 775.3864 213.54 772.4464 198.23 769.344 182.96 765.9728 168.28 762.4616 154.16 758.7992 140.59 754.9968 127 750.864 114.24 746.6584 102.29 742.3912 91.1 738.0624 80.65 733.672 70.23 728.9064 60.64 724.1184 51.86 719.2968 43.84 714.4528 36.54 709.5752 30.65 705.2296 25.33 700.884 20.56 696.5328 16.31 692.1816 12.56 687.8192 9.31 683.44 6.45 678.8872 4.13 674.3344 2.33 669.776 1.04 665.212 0.27 660.62 0 656 0.27 651.38 1.04 646.788 2.33 642.224 4.13 637.6656 6.45 633.1128 9.31 628.56 12.56 624.1808 16.31 619.8184 20.56 615.4672 25.33 611.116 30.65 606.7704 36.54 602.4248 43.84 597.5472 51.86 592.7032 60.64 587.8816 70.23 583.0936 80.65 578.328 91.1 573.9376 102.29 569.6088 114.24 565.3416 127 561.136 140.59 557.0032 154.16 553.2008 168.28 549.5384 182.96 546.0272 198.23 542.656 213.54 539.5536 229.31 536.6136 245.55 533.836 262.29 531.2264 279.02 528.8632 296.12 526.6792 313.59 524.68 331.46 522.8712 349.3 521.292 367.41 519.9032 385.79 518.7216 404.46 517.7416 423.09 516.9856 441.89 516.4424 460.86 516.112 480 516 499.14 516.112 518.11 516.4424 536.91 516.9856 555.54 517.7416 574.21 518.7216 592.59 519.9032 610.7 521.292 628.54 522.8712 646.41 524.68 663.88 526.6792 680.98 528.8632 697.71 531.2264 714.45 533.836 730.69 536.6136 746.46 539.5536 761.77 542.656 777.04 546.0272 791.72 549.5384 805.84 553.2008 819.41 557.0032 833 561.136 845.76 565.3416 857.71 569.6088 868.9 573.9376 879.35 578.328 889.77 583.0936 899.36 587.8816 908.14 592.7032 916.16 597.5472 923.46 602.4248 929.35 606.7704 934.67 611.116 939.44 615.4672 943.69 619.8184 947.44 624.1808 950.69 628.56 953.55 633.1128 955.87 637.6656 957.67 642.224 958.96 646.788 959.73 651.38"></polygon>
                <polygon id="云" fill="url(#linearGradient-2)" points="814 116.21 813.71 119.78 812.9 123.13 811.57 126.33 809.78 129.31 807.57 132.05 804.91 134.56 801.95 136.73 798.65 138.57 794.98 140.1 791.16 141.19 787.08 141.87 782.73 142.12 686 142.12 681.65 141.62 677.53 140.75 673.64 139.51 669.89 137.89 666.51 135.98 663.45 133.77 660.7 131.22 658.41 128.45 656.55 125.44 655.16 122.2 654.31 118.76 654 115.06 654.24 111.82 654.93 108.74 656.05 105.76 657.55 102.96 659.42 100.33 661.65 97.87 664.15 95.68 666.93 93.73 670 92.03 669 89.44 668.67 88.14 668.55 86.85 668.9 83.63 669.86 80.6 671.45 77.72 673.55 75.16 676.12 72.93 679.21 71.03 682.57 69.63 686.26 68.76 690.36 68.42 694.09 68.74 697.45 69.58 700.61 70.86 703.45 72.45 706.62 68.21 710.27 64.31 714.44 60.75 718.99 57.66 723.93 55.03 729.31 52.88 733.47 51.65 737.81 50.76 742.34 50.2 747.09 50 752.03 50.22 756.73 50.83 761.22 51.8 765.52 53.13 769.73 54.85 773.62 56.84 777.22 59.11 780.55 61.66 783.64 64.53 786.34 67.58 788.68 70.83 790.66 74.29 792.25 77.94 793.4 81.71 794.1 85.63 794.36 89.73 794.36 92.03 798.16 93.59 801.57 95.47 804.63 97.66 807.38 100.21 809.65 102.97 811.49 105.98 812.87 109.21 813.7 112.6"></polygon>
                <polygon id="云" fill="url(#linearGradient-3)" points="166.22 0 172.37 0.33 178.25 1.27 183.89 2.81 189.34 4.92 194.46 7.52 199.28 10.64 203.76 14.21 207.83 18.19 211.5 22.59 214.72 27.33 217.43 32.38 219.66 37.78 256.5 37.78 259.69 38.08 262.62 38.87 265.33 40.17 267.79 41.91 269.87 43.99 271.61 46.45 272.9 49.16 273.7 52.08 274 55.28 274 98.06 273.7 101.25 272.9 104.18 271.61 106.89 269.87 109.34 267.79 111.43 265.33 113.17 262.62 114.46 259.69 115.26 256.5 115.56 78.17 115.56 74.97 115.26 72.05 114.46 69.33 113.17 66.88 111.43 64.8 109.34 63.06 106.89 61.76 104.18 60.96 101.25 60.67 98.06 60.67 85.65 58.71 82.15 57.07 78.48 55.75 74.61 54.79 70.63 54.21 66.51 54 62.22 54.25 57.61 54.92 53.2 56 48.98 57.49 44.92 59.39 41.01 61.6 37.36 64.14 33.96 67.02 30.8 70.18 27.92 73.58 25.38 77.23 23.16 81.14 21.27 85.2 19.78 89.42 18.69 93.83 18.02 98.44 17.78 102.4 17.95 106.22 18.45 109.92 19.27 113.53 20.4 116.98 21.81 120.27 23.5 123.95 18.93 128.03 14.8 132.56 11.08 137.44 7.84 142.64 5.13 148.19 2.93 152.48 1.67 156.91 0.76 161.48 0.2"></polygon>
                <g transform="translate(170.03, 569.99)">
                    <polygon id="椭圆形" fill="#CCDCF6" points="39.57 78.01 39.39 78.67 38.86 79.33 37.82 80.03 35.95 80.8 33.23 81.46 30.26 81.86 26.77 82.01 23.28 81.86 20.31 81.46 17.59 80.8 15.72 80.03 14.68 79.33 14.15 78.67 13.97 78.01 14.15 77.35 14.68 76.69 15.72 75.99 17.59 75.22 20.31 74.56 23.28 74.16 26.77 74.01 30.26 74.16 33.23 74.56 35.95 75.22 37.82 75.99 38.86 76.69 39.39 77.35"></polygon>
                    <polygon id="路径-42" fill="url(#linearGradient-4)" fill-rule="nonzero" points="13.18 76.44 14.08 66.23 15.4 57.59 17.07 50.34 19.02 44.29 21.22 39.31 23.62 35.23 26.2 31.94 28.96 29.34 31.91 27.35 35.09 25.9 38.83 25.46 40.57 25.42 41.85 25.62 42.54 25.95 42.97 26.44 43.17 27.15 42.97 28.45 41.86 30.77 40.74 32.25 39.37 33.54 35.97 36.27 34.07 37.99 31.83 40.44 29.66 43.35 27.14 47.54 24.77 52.36 22.09 59.04 19.6 66.52 16.85 76.43 16.05 77.46 15.27 77.76 14.37 77.51"></polygon>
                    <polygon id="路径-41" fill="url(#linearGradient-5)" fill-rule="nonzero" points="12.94 76.08 9.95 53.79 7.63 39.04 5.86 29.92 4.54 24.79 2.33 17.62 1.27 13.68 0.45 9.92 -2.84217094e-14 6.28 0.1 3.49 0.55 1.86 1.34 0.8 2.47 0.15 3.82 0 5.82 0.42 8.79 1.7 10.79 3.03 12.65 4.77 14.38 6.98 15.99 9.71 17.68 13.53 19.14 17.95 20.33 23.05 21.16 28.21 21.73 33.68 22.02 39.46 21.94 48.13 21.27 56.7 20.5 62.38 19.5 67.63 18.3 72.5 16.92 75.87 15.88 77.49 15.1 78.09 14.44 78.09 13.75 77.55"></polygon>
                </g>
                <g transform="translate(686.12, 515.43)" fill-rule="nonzero">
                    <polygon id="路径-43" fill="url(#linearGradient-6)" points="65.86 95.44 64.68 91.29 63.08 87.52 61.06 84.11 58.61 81 55.7 78.19 52.3 75.65 48.36 73.38 43.8 71.4 37.12 68.99 32.35 66.73 29.55 64.91 28.01 63.36 27.32 62.01 27.29 61.01 27.74 60.01 28.86 58.94 30.96 57.75 36.28 57.14 39.42 57.05 43.01 57.47 45.36 58.1 47.87 59.22 50.57 60.88 53 62.9 55.6 65.73 58.38 69.56 60.76 73.62 63.25 78.91 65.86 85.66 66.41 88.98 66.41 92.22"></polygon>
                    <polygon id="路径-44" fill="url(#linearGradient-7)" points="66.48 97.26 62.82 84.5 59.18 73.38 55.55 63.74 51.96 55.45 48.41 48.36 44.92 42.36 41.49 37.32 39.91 35.06 38.66 32.75 37.71 30.38 36.8 26.72 36.54 23.29 36.71 21.03 37.16 19.04 37.84 17.29 38.83 15.71 40.04 14.5 41.49 13.62 43.53 13.44 45.99 13.53 47.63 13.84 49.42 14.53 51.41 15.67 53.18 17.12 55.15 19.29 57.33 22.4 59.18 25.7 61.18 30.17 63.35 36.04 65.17 42.01 67.08 49.56 69.07 58.93 69.84 63.97 70.69 72.79 70.87 77.93 70.73 83.31 70.16 88.61 69.07 93.4 68.38 95 67.52 96.27"></polygon>
                    <polygon id="路径-45" fill="url(#linearGradient-8)" points="68.17 91.08 69.26 86.16 70 80.7 70.35 74.65 70.27 67.93 69.71 60.49 68.6 52.25 66.91 43.15 62.83 31.37 60.89 25.42 59.37 19.86 58.6 16.14 58.23 12.85 58.19 9.92 58.46 7.74 59.03 5.87 59.87 4.25 61 2.86 62.37 1.77 64.17 0.91 66.5 0.3 69.48 -1.13686838e-13 71.87 0.55 74.37 1.74 75.89 2.85 77.42 4.41 78.95 6.5 80.19 8.77 81.38 11.73 82.48 15.53 83.26 19.39 83.86 24.19 84.25 30.09 84.33 35.98 84.11 43.04 83.53 51.44 82.25 59.58 80.81 66.41 79.11 72.91 77.3 78.9 73.35 91.08 71.9 91.59 70.21 91.62"></polygon>
                    <polygon id="路径-46" fill="url(#linearGradient-9)" points="72.04 95.83 71.89 84.33 72.31 73.94 73.25 64.59 74.67 56.18 76.5 48.63 78.72 41.86 81.31 35.8 84.23 30.39 87.48 25.57 91.05 21.29 92.43 19.85 94.39 18.47 96.63 17.39 99.08 16.69 101.57 16.5 103.9 16.93 105.31 17.59 106.55 18.65 107.66 20.15 108.43 21.87 108.95 24.2 109.16 27.32 107.5 33.86 106.12 37.99 103.93 43.27 101.16 48.81 97.16 55.56 94.15 60.06 90.43 65.09 85.92 70.72 83.74 73.85 81.76 77.2 80.01 80.63 78.57 83.87 77.35 87.03 76.51 89.57 75.92 91.86 75.77 93.1 75.53 94.27 74.9 95.08 73.81 95.62"></polygon>
                    <polygon id="路径-47" fill="url(#linearGradient-10)" points="0 100.4 11.84 97.94 18.47 96.1 21.7 94.76 22.94 93.82 23.88 92.92 26.04 91.37 28.62 89.86 32.01 88.24 35.68 86.88 39.71 85.88 42.47 85.51 45.23 85.46 47.99 85.74 50.66 86.42 53.22 87.59 55.71 89.29 56.87 88.14 58.55 87.08 60.47 86.31 62.64 85.86 64.89 85.85 67.14 86.36 68.55 87 69.89 87.96 71.18 89.29 71.95 87.06 73.09 84.98 74.61 83.04 77.35 80.49 80.5 78.37 83.87 76.7 87.08 75.61 90.22 75.03 92.58 75.09 94.76 74.98 97.82 75.07 101.05 75.48 104.66 76.4 107 77.33 109.32 78.61 111.62 80.28 113.64 82.25 115.51 84.76 117.22 87.89 118.48 91.22 119.42 95.34 120 100.4 101.21 100.49"></polygon>
                </g>
            </g>
            <g transform="translate(206, 122.35)">
                <polygon id="路径" fill-opacity="0.3" fill="url(#linearGradient-11)" fill-rule="nonzero" points="149.89 458.906392 190.45 417.82 600 530.849011 414 652.82"></polygon>
                <g transform="translate(0, 275.57)" fill-rule="nonzero" id="路径">
                    <polygon fill="url(#linearGradient-12)" points="308.02 19.47 153.24 1.13686838e-13 153.24 77.22 305.54 95.01"></polygon>
                    <polygon fill="url(#linearGradient-13)" points="30.65 25.19 153.22 1.13686838e-13 153.24 86.82 30.65 111.86"></polygon>
                    <polygon fill="url(#linearGradient-14)" points="174.7 58.49 306.48 24.52 306.48 185.16 174.7 219.13"></polygon>
                    <polygon fill="url(#linearGradient-15)" points="32.18 29.11 176.23 57.84 175.39 219.13 32.18 187.14"></polygon>
                    <polygon fill="url(#linearGradient-16)" points="176.23 58.5 30.91 27.58 0 84.54 147.79 119.53"></polygon>
                    <polygon fill="url(#linearGradient-17)" points="176.23 57.8 308.15 21.45 341.73 78.02 215.38 119.53"></polygon>
                </g>
                <g transform="translate(15.98, 0)">
                    <polyline id="路径-2" stroke="url(#linearGradient-18)" points="19.66 68.65 14.42 76.63 10.11 84.17 6.67 91.28 4 98.01 2.06 104.4 0.77 110.47 0.09 116.27 0 121.84 0.45 127.2 1.45 132.39 3 137.44 5.1 142.38 7.78 147.23 11.08 152.01 15.04 156.74 19.73 161.43 25.21 166.08 31.55 170.69 38.84 175.25 47.17 179.77 56.63 184.22 67.33 188.6"></polyline>
                    <polyline id="路径-3" stroke="url(#linearGradient-19)" points="6.79 179.57 12.32 186.03 17.43 191.2 22.14 195.25 26.5 198.32 30.55 200.55 34.33 202.05 37.9 202.9 41.3 203.18"></polyline>
                    <polyline id="路径-4" stroke="url(#linearGradient-20)" points="312.31 0 312.26 6.3 311.66 12.37 310.53 18.22 308.86 23.9 306.65 29.43 303.89 34.82 300.54 40.11 296.57 45.29 291.94 50.4 286.6 55.42 280.48 60.37 273.53 65.24 265.66 70.03 256.81 74.72 246.9 79.31 235.82 83.78 223.5 88.11 209.84 92.27 194.73 96.25 178.07 100.02"></polyline>
                    <polyline id="路径-5" stroke="url(#linearGradient-21)" points="324.47 59.91 314.66 67.77 306 74.02 298.37 78.87 291.65 82.51 285.75 85.1 280.57 86.8 276.01 87.75 271.99 88.04"></polyline>
                    <polyline id="路径-6" stroke="url(#linearGradient-22)" points="287.44 168.79 272.33 167.27 258.23 166.44 245.09 166.26 232.85 166.68 221.44 167.66 210.81 169.17 200.92 171.17 191.71 173.64 183.14 176.54 175.16 179.88 167.74 183.63 160.83 187.79 154.41 192.35 148.45 197.33 142.92 202.73 137.82 208.57 133.12 214.87 128.82 221.66 124.91 228.96 121.42 236.82"></polyline>
                    <polygon id="路径-7" fill="url(#linearGradient-23)" fill-rule="nonzero" points="17.6 105.44 31.14 107.84 42.52 110.4 52 113.08 59.79 115.84 66.13 118.64 71.2 121.45 75.2 124.27 78.27 127.08 80.55 129.89 82.16 132.72 83.17 135.59 83.63 138.57 83.53 141.69 82.84 145.02 81.48 148.62 79.68 151.92 77.77 154.34 75.75 156.04 73.61 157.13 71.28 157.67 68.69 157.66 65.75 157.02 62.37 155.63 58.45 153.31 53.88 149.84 48.57 144.97 42.4 138.43 35.27 129.88 27.04 119.01"></polygon>
                    <polygon id="路径-8" points="204.43 59.91 206.34 54.18 208.57 49.22 211.1 44.93 213.92 41.26 217.03 38.13 220.45 35.51 224.19 33.37 228.31 31.7 232.85 30.49 237.87 29.78 243.42 29.61 249.6 30.04 256.46 31.13 264.1 32.97 263.54 35.5 262.42 37.98 260.67 40.44 258.19 42.9 254.81 45.4 250.38 47.91 244.69 50.43 237.5 52.93 228.58 55.37 217.65 57.71"></polygon>
                    <polygon id="路径-9" fill="url(#linearGradient-24)" fill-rule="nonzero" points="134.67 256.74 139.22 248.49 143.84 241.22 148.54 234.85 153.29 229.31 158.11 224.52 163 220.44 167.96 217 173.02 214.17 178.19 211.91 183.49 210.21 188.95 209.04 194.59 208.41 200.46 208.33 206.57 208.82 212.98 209.92 219.7 211.66 226.79 214.09 234.26 217.27 230.27 224.08 226.03 230.17 221.55 235.62 216.84 240.45 211.89 244.72 206.68 248.44 201.2 251.64 195.42 254.35 189.32 256.55 182.88 258.25 176.04 259.44 168.78 260.1 161.06 260.2 152.83 259.7 144.05 258.57"></polygon>
                    <polyline id="路径-10" points="197.03 73.98 199.87 68.5 202.86 63.82 206 59.87 209.27 56.57 212.68 53.85 216.26 51.68 220.01 50.01"></polyline>
                    <polyline id="路径-11" stroke="url(#linearGradient-25)" points="67.33 142.53 70.53 143.56 73.33 145.07 75.8 147.07 77.96 149.61 79.83 152.76 81.38 156.64 82.59 161.35 83.37 167.06 83.65 173.92"></polyline>
                    <polyline id="路径-12" stroke="url(#linearGradient-26)" points="124.48 271.52 127.48 266.33 130.61 261.87 133.88 258.07 137.27 254.86 140.81 252.21 144.49 250.06 148.35 248.4 152.41 247.2 156.7 246.48 161.26 246.23"></polyline>
                </g>
            </g>
            <g transform="translate(512, 530.12)">
                <polygon id="椭圆形" fill="#CCDCF6" points="172 147.88 171.74 149.57 170.99 151.26 169.66 153 167.62 154.83 164.61 156.81 160.61 158.83 155.41 160.87 150.11 162.54 143.94 164.14 136.79 165.64 129.62 166.84 121.77 167.89 113.18 168.76 100.13 169.58 86 169.88 71.87 169.58 58.82 168.76 50.23 167.89 42.38 166.84 35.21 165.64 28.06 164.14 21.89 162.54 16.59 160.87 11.39 158.83 7.39 156.81 4.38 154.83 2.34 153 1.01 151.26 0.26 149.57 0 147.88 0.26 146.19 1.01 144.5 2.34 142.76 4.38 140.93 7.39 138.95 11.39 136.93 16.59 134.89 21.89 133.22 28.06 131.62 35.21 130.12 42.38 128.92 50.23 127.87 58.82 127 71.87 126.18 86 125.88 100.13 126.18 113.18 127 121.77 127.87 129.62 128.92 136.79 130.12 143.94 131.62 150.11 133.22 155.41 134.89 160.61 136.93 164.61 138.95 167.62 140.93 169.66 142.76 170.99 144.5 171.74 146.19"></polygon>
                <g transform="translate(64.04, 0)">
                    <polygon id="矩形" fill="url(#linearGradient-27)" points="11.36 43.39 24.94 52.21 16.12 65.8 2.54 56.98"></polygon>
                    <polygon id="椭圆形" fill="url(#linearGradient-28)" points="40.41 47.33 38.33 50.01 36.03 52.19 33.49 53.92 30.71 55.22 27.89 56 25.02 56.29 22.16 56.06 19.43 55.29 16.79 53.95 14.5 52.08 12.68 49.91 11.31 47.38 10.4 44.64 9.97 41.75 10.03 38.68 10.57 35.65 11.63 32.67 13.23 29.69 15.31 27.01 17.61 24.83 20.15 23.1 22.94 21.8 25.75 21.02 28.62 20.72 31.48 20.95 34.21 21.73 36.85 23.07 39.14 24.93 40.96 27.11 42.33 29.63 43.24 32.37 43.67 35.26 43.61 38.33 43.07 41.36 42.01 44.35"></polygon>
                    <polygon id="路径-53" fill="#483029" points="45.54 36.67 41.08 38.1 37.02 38.86 33.29 39.02 29.85 38.64 26.63 37.73 25.84 37.46 25.01 36.87 23.36 35.44 22.47 34.86 21.56 34.59 20.64 34.73 19.52 35.49 18.77 36.66 18.23 38.01 17.95 39.4 18 40.6 18.42 41.57 19.26 42.12 17.8 43.08 15.78 43.97 13.08 44.73 9.54 45.34 6.67 43.83 4.28 41.91 2.32 39.54 0.77 36.67 0.27 34.84 0 32.76 0 30.39 0.47 26.82 1.55 23.06 2.59 20.63 3.89 18.29 5.47 16.05 7.3 14.01 9.41 12.24 11.81 10.7 14.39 9.54 17.31 8.76 20.6 8.38 22.86 8.17 25.07 8.14 28.14 8.4 31.34 9.05 34.88 10.36 37.12 11.57 39.34 13.23 41.53 15.37 43.37 17.79 45.05 20.88 46.54 24.74 47.31 27.57 47.55 30.13 47.33 32.46 46.66 34.63"></polygon>
                    <polygon id="椭圆形" fill="#483029" points="29.26 12.63 27.81 14.31 26.07 15.48 24.1 16.18 22.01 16.35 19.94 15.98 17.94 15.03 16.26 13.59 15.08 11.85 14.39 9.87 14.22 7.79 14.59 5.72 15.53 3.72 16.98 2.04 18.72 0.86 20.69 0.17 22.78 -1.13686838e-13 24.85 0.37 26.85 1.31 28.53 2.75 29.7 4.5 30.4 6.47 30.57 8.56 30.2 10.63"></polygon>
                </g>
                <polygon id="路径-52" fill="url(#linearGradient-29)" fill-rule="nonzero" points="138.14 134.53 139.06 140.54 142.74 140.95 146.79 142.02 151.27 143.84 153.07 145.17 153.83 146.04 154.2 146.97 154.32 148.05 153.97 148.39 151.86 148.73 145.3 148.79 130.32 148.05 130.32 132.33"></polygon>
                <polygon id="Fill-1706" fill="url(#linearGradient-30)" fill-rule="nonzero" points="74.11 111.66 79.46 104.21 82.87 99.93 86.89 95.4 91.27 91.08 96.05 87.12 99.45 84.77 102.95 82.82 106.55 81.25 110.3 80.14 114.11 79.62 118.03 79.67 120.47 80.28 122.79 81.51 125.03 83.45 126.97 85.77 128.84 88.58 130.64 91.95 132.93 97.29 134.97 103.23 136.7 109.33 138.14 115.36 140.26 126.41 141.45 134.46 141.82 137.57 127.11 137.74 112.88 103.87 81.84 142.97 59.23 134.27"></polygon>
                <polygon id="Fill-1708" fill="url(#linearGradient-31)" fill-rule="nonzero" points="21.28 111.04 20.08 115.84 19.14 121.13 18.57 126.52 18.45 131.89 18.65 135.45 19.12 138.78 19.83 141.9 20.88 144.9 22.24 147.51 23.91 149.76 25.94 151.65 28.38 153.08 31.31 154.06 34.55 154.61 38.4 154.96 47.85 155.12 61.06 154.97 79.43 154.91 98.62 154.98 104.35 154.8 109.21 154.4 113.29 153.8 116.36 153.07 118.89 152.13 120.97 151 122.64 149.7 124.01 148.1 125.01 146.16 125.64 143.82 125.86 140.96 125.5 138.51 124.62 136.47 123.22 134.73 121.43 133.31 119.25 132.08 116.6 131.06 112.4 130 107.7 129.29 102.91 128.91 98.21 128.76 89.81 128.79 84.19 128.72 78.61 128.41 70.28 128.15 60.88 127.96 52.09 127.81 45.58 127.73 43.04 127.7"></polygon>
                <polygon id="Fill-1709" fill="url(#linearGradient-32)" points="82.49 65.88 76.51 60.35 73.93 58.13 72.46 56.31 71.52 54.44 71.18 52.99 71.17 51.64 71.35 50.75 71.7 49.92 69.58 49.96 67.34 50.24 63.94 51.05 60.32 52.37 55.87 54.69 52.98 56.6 49.86 59.14 46.47 62.39 43.39 65.89 40.18 70.26 36.83 75.63 34.01 80.77 31.11 86.43 25.66 97.8 21.05 108.04 17.86 115.43 16.67 118.28 18.12 119.63 19.89 120.92 23.05 122.72 26.82 124.37 32.29 126.11 36.19 127.01 40.95 127.77 46.68 128.35 52.41 128.59 59.17 128.49 67.08 127.98 68.36 125.55 71.64 119.35 76.08 111.01 80.83 102.2 85.04 94.54 86.4 91.57 87.24 88.33 87.57 84.76 87.35 80.81 86.49 76.4 84.91 71.45"></polygon>
                <polygon id="矩形" fill="#483029" points="153.05 92.52 134.26 99.36 134.95 101.24 153.74 94.4"></polygon>
                <polygon id="路径-50备份" fill="#FEE0BC" points="130.99 101.23 135.17 99.15 135.87 98.52 136.92 97.85 138.43 97.55 139 97.7 139.14 98.08 138.87 98.9 138.16 99.57 140.73 99.02 143.16 97.81 145.09 97.18 146.16 97.29 146.75 97.89 146.97 99.18 146.57 100.35 145.8 101.46 144.61 102.56 143.21 103.34 141.34 103.85 138.87 104.02 137.67 103.79 136.08 103.85 133.99 104.29"></polygon>
                <polygon id="路径-3" fill="url(#linearGradient-33)" points="133.29 99.52 90.98 115.5 79.78 71.18 78.11 68.01 76.19 65.55 74.04 63.68 71.61 62.34 68.87 61.5 65.73 61.17 62.11 61.42 59.96 62.64 58.18 64.04 56.72 65.64 55.56 67.45 54.46 70.11 53.88 72.96 53.84 76.05 54.17 78.21 55.06 81.87 56.25 85.88 57.89 90.78 59.77 95.84 61.95 101.17 64.33 106.43 66.83 111.37 69.53 116.02 72.15 119.76 75.46 123.56 78.37 126.59 80.4 128.34 82.48 129.66 84.65 130.58 86.93 131.07 89.63 131.07 92.86 130.51 98.42 128.19 111.44 121.83 136.8 108.61"></polygon>
            </g>
        </g>
    </g>
</svg>