<?xml version="1.0" encoding="UTF-8"?>
<svg width="420px" height="223px" viewBox="0 0 420 223" version="1.1" xmlns="http://www.w3.org/2000/svg" xmlns:xlink="http://www.w3.org/1999/xlink">
    <title>路径</title>
    <g id="控件" stroke="none" stroke-width="1" fill="none" fill-rule="evenodd" fill-opacity="0.05">
        <g id="页尾" transform="translate(14, 58)" fill="#FFFFFF" fill-rule="nonzero">
            <g id="编组" transform="translate(-13.9897, -58)">
                <path d="M419.741534,0 C404.467815,18.5548243 390.052316,34.649752 387.89833,36.7294395 C376.702099,47.5471497 364.650458,58.663832 350.569441,65.5104888 C339.541857,70.8787752 328.195718,76.1949687 316.826157,80.7605933 C295.641389,89.2743168 274.510964,97.4043704 253.722514,106.942244 C230.68545,117.519165 209.822047,133.013057 188.870574,147.213058 C176.803004,155.392394 164.683905,163.493965 153.140075,172.404101 C142.540665,180.566572 130.612697,186.750262 120.130402,195.042966 C112.844888,200.794735 104.155864,203.930615 95.6129991,207.460003 C74.2879742,216.26614 51.5890454,219.554739 28.7147245,221.309595 C18.7003286,222.082557 9.39724468,222.294301 0,221.737769 L0,0 L419.741534,0 Z" id="路径"></path>
            </g>
        </g>
    </g>
</svg>