<?xml version="1.0" encoding="UTF-8"?>
<svg width="307px" height="324px" viewBox="0 0 307 324" version="1.1" xmlns="http://www.w3.org/2000/svg" xmlns:xlink="http://www.w3.org/1999/xlink">
    <title>路径</title>
    <g id="控件" stroke="none" stroke-width="1" fill="none" fill-rule="evenodd" fill-opacity="0.05">
        <g id="页尾" transform="translate(-1133, -146)" fill="#FFFFFF" fill-rule="nonzero">
            <g id="编组" transform="translate(-13.9897, -58)">
                <path d="M1453.83691,204.761536 C1452.53459,204.768094 1451.23227,204.791517 1449.92995,204.825246 L1449.92058,204.825246 C1444.13977,204.984523 1438.41517,205.447363 1433.16841,206.253117 C1419.37692,208.3715 1403.30871,210.905877 1390.29486,215.99618 L1390.29486,216.002739 C1390.00441,216.102989 1389.72334,216.217294 1389.45163,216.330662 C1367.55576,225.174279 1344.41379,230.389192 1324.29807,242.994555 C1304.4728,255.41066 1286.14661,268.579114 1266.00278,280.457424 C1239.84392,295.894169 1216.85185,312.701632 1195.39634,334.095333 C1177.37933,352.055211 1162.81956,381.829689 1155.80201,405.525411 C1154.92131,408.527312 1154.12492,411.545141 1153.41286,414.562971 C1147.30413,440.497938 1147.37908,467.106553 1147.49151,493.754519 C1147.54773,505.556002 1150.20859,516.681027 1151.95126,527.999994 L1453.83691,527.999994 L1453.83691,204.761536 Z" id="路径"></path>
            </g>
        </g>
    </g>
</svg>