<?xml version="1.0" encoding="UTF-8"?>
<svg width="863px" height="646px" viewBox="0 0 863 646" version="1.1" xmlns="http://www.w3.org/2000/svg" xmlns:xlink="http://www.w3.org/1999/xlink">
    <title>no-data</title>
    <g id="页面-1" stroke="none" stroke-width="1" fill="none" fill-rule="evenodd">
        <g id="no-data" transform="translate(0, 0.9716)">
            <polygon id="路径" fill="#FFB8B8" fill-rule="nonzero" points="629.942976 612.672433 612.776976 612.672433 604.607976 546.463433 629.942976 546.463433"></polygon>
            <path d="M639.002666,642.413543 L626.692716,642.413543 L624.495446,630.791493 L618.867906,642.413543 L586.218976,642.413543 C583.006844,642.413543 580.167815,640.325061 579.211898,637.258464 C578.255982,634.191868 579.405315,630.859957 582.048596,629.034893 L608.121066,611.028313 L608.121066,599.278813 L635.544746,600.915643 L639.002666,642.413543 Z" id="路径" fill="#2F2E41" fill-rule="nonzero"></path>
            <polygon id="路径" fill="#FFB8B8" fill-rule="nonzero" points="731.922976 591.009433 718.147976 601.252433 672.084976 552.997433 692.414976 537.879433"></polygon>
            <path d="M756.939756,609.469303 L747.061596,616.814833 L738.363326,608.799833 L740.782546,621.484023 L714.583316,640.966133 C712.00584,642.883006 708.481317,642.901043 705.884357,641.010652 C703.287396,639.120261 702.221485,635.760734 703.253556,632.718923 L713.430676,602.711643 L706.419576,593.283223 L729.402516,578.232563 L756.939756,609.469303 Z" id="路径" fill="#2F2E41" fill-rule="nonzero"></path>
            <path d="M649.927426,271.068443 C649.927426,271.068443 682.496216,299.206353 667.469426,379.420513 L649.124026,458.017043 L708.953426,557.273143 L689.876786,580.480853 L612.097176,473.047453 L583.911886,406.933803 L576.003196,289.264393 L649.927426,271.068443 Z" id="路径" fill="#2F2E41" fill-rule="nonzero"></path>
            <polygon id="路径" fill="#2F2E41" fill-rule="nonzero" points="599.446976 425.774433 597.487976 456.112433 603.482976 585.393433 631.691976 580.480433 637.082976 488.434433"></polygon>
            <polygon id="路径" fill="#FFB6B6" fill-rule="nonzero" points="237.444976 628.239433 252.795976 628.238433 260.097976 569.029433 237.442976 569.030433"></polygon>
            <path d="M233.529596,623.227513 L237.850336,623.227333 L254.719216,616.367153 L263.760416,623.226283 L263.761596,623.226283 C274.401246,623.226846 283.0263,631.851743 283.027056,642.491393 L283.027056,643.117443 L233.530476,643.119273 L233.529596,623.227513 Z" id="路径" fill="#2F2E41" fill-rule="nonzero"></path>
            <polygon id="路径" fill="#FFB6B6" fill-rule="nonzero" points="296.931976 618.566433 311.904976 621.946433 332.070976 565.800433 309.971976 560.810433"></polygon>
            <path d="M294.216226,612.814683 L298.430876,613.766283 L316.396556,610.790453 L323.704756,619.472683 L323.705956,619.472953 C334.084145,621.817195 340.597459,632.130165 338.254496,642.508643 L338.116596,643.119313 L289.835386,632.218093 L294.216226,612.814683 Z" id="路径" fill="#2F2E41" fill-rule="nonzero"></path>
            <path d="M218.003196,266.264393 C210.806116,287.970753 211.567016,311.532393 219.733116,336.820453 L223.223986,479.198663 C223.223986,479.198663 218.022876,572.567393 234.805896,605.423163 L259.145896,605.423163 L271.197016,470.671873 L272.710316,380.225963 L324.892756,456.531793 L291.656216,603.220073 L321.613016,605.898073 L375.547096,446.707173 L309.003196,292.264393 L218.003196,266.264393 Z" id="路径" fill="#2F2E41" fill-rule="nonzero"></path>
            <path d="M498.697596,204.436263 C517.314916,187.659703 545.006526,179.224183 568.234736,188.631263 C544.407602,201.860011 526.02762,223.090378 516.346736,248.566103 C512.648836,258.404563 509.560296,269.732333 500.464856,274.999593 C494.805526,278.277123 487.764586,278.437293 481.419176,276.855163 C475.073496,275.272793 469.256916,272.101013 463.520046,268.960943 L461.887866,268.924033 C469.215656,244.958213 480.080316,221.212813 498.697596,204.436263 Z" id="路径" fill="#E6E6E6" fill-rule="nonzero"></path>
            <path d="M568.104876,189.140813 C547.532505,191.799357 528.320818,200.872436 513.198596,215.071333 C509.888865,218.070239 507.072524,221.572102 504.853256,225.448003 C502.813416,229.293486 501.840551,233.615053 502.035746,237.963683 C502.136286,242.022013 502.709096,246.161603 501.821366,250.173683 C500.840612,254.313859 498.13951,257.838661 494.396826,259.862333 C489.850966,262.475333 484.637326,263.299063 479.510826,263.927433 C473.818826,264.625123 467.895566,265.259623 462.968446,268.452233 C462.371446,268.839063 461.806136,267.890123 462.402226,267.503873 C470.974576,261.949273 481.821916,263.970373 491.039466,260.263223 C495.340546,258.533393 499.146376,255.496913 500.493466,250.906033 C501.671406,246.891513 501.084366,242.622233 500.947056,238.513963 C500.694455,234.274534 501.483772,230.037738 503.246056,226.173683 C505.260815,222.197298 507.937557,218.592766 511.161656,215.514443 C518.309604,208.468366 526.520972,202.589992 535.494956,198.094663 C545.708423,192.907396 556.733977,189.505495 568.094596,188.036143 C568.797786,187.945493 568.803456,189.050753 568.104856,189.140813 L568.104876,189.140813 Z" id="路径" fill="#FFFFFF" fill-rule="nonzero"></path>
            <path d="M517.798776,210.212733 C513.58992,204.3046 514.280977,196.217244 519.431186,191.108833 C519.937466,190.610103 520.736246,191.373403 520.229296,191.872833 C515.422866,196.62268 514.793807,204.166215 518.747136,209.646543 C519.162256,210.223443 518.211526,210.786373 517.798776,210.212773 L517.798776,210.212733 Z" id="路径" fill="#FFFFFF" fill-rule="nonzero"></path>
            <path d="M501.713756,235.912663 C508.783327,237.165214 516.065267,235.707147 522.107556,231.829203 C522.705896,231.444493 523.271396,232.393323 522.673776,232.777563 C516.378497,236.801308 508.797435,238.303245 501.443546,236.983633 C500.742696,236.857373 501.016716,235.787083 501.713756,235.912633 L501.713756,235.912663 Z" id="路径" fill="#FFFFFF" fill-rule="nonzero"></path>
            <path d="M545.798156,194.369193 C546.931334,196.951276 549.286937,198.790496 552.066756,199.263623 C552.768856,199.380943 552.494076,200.451153 551.796546,200.334623 C548.72907,199.797836 546.127104,197.77553 544.849796,194.935453 C544.703805,194.672133 544.787428,194.340696 545.040866,194.178153 C545.302986,194.023434 545.640812,194.10867 545.798156,194.369223 L545.798156,194.369193 Z" id="路径" fill="#FFFFFF" fill-rule="nonzero"></path>
            <path d="M593.812836,269.535933 C593.372356,269.475143 592.931836,269.414363 592.484926,269.360333 C586.558668,268.57378 580.578304,268.269984 574.602846,268.451943 C574.140636,268.458673 573.672316,268.472453 573.211256,268.492443 C558.819704,269.084279 544.663106,272.342876 531.461106,278.102583 C526.20983,280.399335 521.140899,283.092273 516.298196,286.158083 C509.610466,290.392463 502.696196,295.515723 495.220196,297.242673 C494.442251,297.431599 493.653351,297.572155 492.858026,297.663533 L461.969386,270.918073 C461.929696,270.822073 461.883586,270.732763 461.843546,270.636453 L460.561426,269.624983 C460.800146,269.449423 461.051506,269.272473 461.290216,269.096903 C461.428216,268.994493 461.573216,268.898033 461.711216,268.795623 C461.805436,268.729233 461.900026,268.663093 461.981216,268.597803 C462.012496,268.575583 462.044116,268.553673 462.069326,268.538463 C462.150546,268.473173 462.232926,268.421143 462.308036,268.362903 C463.710336,267.369903 465.122056,266.385027 466.543196,265.408273 C466.549306,265.401273 466.549306,265.401273 466.562296,265.400123 C477.319924,257.853935 488.934743,251.610515 501.163296,246.800733 C501.530156,246.662143 501.902776,246.516203 502.283746,246.389833 C507.790855,244.34216 513.456111,242.748017 519.222936,241.623323 C522.382647,241.017633 525.570993,240.572287 528.775736,240.288993 C537.057717,239.572938 545.400787,240.164028 553.499086,242.040593 C569.642406,245.783893 584.408856,254.648443 593.154866,268.473133 C593.378476,268.826943 593.595466,269.175063 593.812836,269.535933 Z" id="路径" fill="#E6E6E6" fill-rule="nonzero"></path>
            <path d="M593.403946,269.867843 C575.377432,259.604552 554.575352,255.282136 533.952386,257.514543 C529.50419,257.916305 525.147125,259.016715 521.041596,260.775263 C517.09765,262.617538 513.718989,265.482335 511.256666,269.071993 C508.893536,272.372873 506.858586,276.022993 503.734216,278.691993 C500.458467,281.407212 496.17961,282.595317 491.972896,281.957743 C486.770096,281.307143 482.111336,278.825893 477.639796,276.241103 C472.674996,273.371193 467.563596,270.311593 461.707386,269.894253 C460.997826,269.843693 461.117786,268.745643 461.826266,268.796133 C472.015066,269.522243 479.459266,277.666833 489.050886,280.256483 C493.526526,281.464853 498.393446,281.331763 502.233016,278.477233 C505.590556,275.981063 507.692246,272.218843 510.056066,268.855943 C512.406799,265.318912 515.587856,262.411284 519.321356,260.387053 C523.324089,258.425158 527.631498,257.158728 532.059126,256.641993 C542.008587,255.319648 552.104094,255.569904 561.975816,257.383593 C573.253824,259.391068 584.105322,263.312999 594.060816,268.979703 C594.676816,269.330703 594.015936,270.216583 593.403926,269.867893 L593.403946,269.867843 Z" id="路径" fill="#FFFFFF" fill-rule="nonzero"></path>
            <path d="M540.550596,256.404843 C540.747165,249.153506 546.168085,243.112269 553.355856,242.134273 C554.060356,242.040883 554.238576,243.131273 553.533146,243.224773 C546.835755,244.123478 541.791765,249.767818 541.648716,256.523723 C541.632836,257.234283 540.534806,257.111333 540.550596,256.404843 L540.550596,256.404843 Z" id="路径" fill="#FFFFFF" fill-rule="nonzero"></path>
            <path d="M512.234466,267.240503 C517.124998,272.496966 523.817076,275.717013 530.976296,276.258563 C531.685656,276.311643 531.565926,277.409693 530.857416,277.356683 C523.408415,276.779227 516.45109,273.414118 511.373916,267.932933 C510.890346,267.410163 511.753526,266.720573 512.234466,267.240503 L512.234466,267.240503 Z" id="路径" fill="#FFFFFF" fill-rule="nonzero"></path>
            <path d="M572.445426,260.612233 C571.795614,263.35613 572.569093,266.242877 574.503766,268.294283 C574.993766,268.810663 574.129986,269.499733 573.643216,268.986713 C571.517198,266.711282 570.657245,263.530022 571.347306,260.493353 C571.38927,260.195208 571.655588,259.98092 571.955806,260.003733 C572.258248,260.038011 572.476667,260.309463 572.445426,260.612233 L572.445426,260.612233 Z" id="路径" fill="#FFFFFF" fill-rule="nonzero"></path>
            <path d="M51.2732161,627.164323 C49.8232161,632.604323 46.0132161,637.134323 41.4132161,640.434323 C40.6632161,640.974323 39.8932161,641.474323 39.1132161,641.944323 C38.8732161,642.084323 38.6332161,642.234323 38.3832161,642.364323 C38.1132161,642.524323 37.8432161,642.674323 37.5732161,642.814323 L15.9432161,642.814323 C15.5532161,642.024323 15.1732161,641.224323 14.7932161,640.434323 C5.52321613,620.954323 -0.986783873,599.934323 0.123216127,578.524323 C0.563593275,570.219807 2.30827306,562.036348 5.29321613,554.274323 C11.2332161,538.804323 22.0732161,525.414323 36.9832161,518.674323 C37.3532161,518.504323 37.7432161,518.334323 38.1232161,518.174323 C38.0032161,518.604323 37.8832161,519.024323 37.7632161,519.454323 C36.1636267,525.216817 35.0332665,531.099372 34.3832161,537.044323 C34.3232161,537.504323 34.2732161,537.964323 34.2332161,538.434323 C32.8125539,552.771869 34.0740542,567.248603 37.9532161,581.124323 C37.9632161,581.154323 37.9731661,581.194323 37.9832161,581.224323 C38.8332561,584.294323 39.8199228,587.317657 40.9432161,590.294323 C41.8232161,592.644323 42.7732161,594.964323 43.8132161,597.244323 C48.1532261,606.814393 53.9731661,617.014393 51.2732161,627.164323 Z" id="路径" fill="#E6E6E6" fill-rule="nonzero"></path>
            <path d="M38.3932161,518.624393 C38.1832161,518.904393 37.9731661,519.174393 37.7632161,519.454393 C33.3710367,525.275141 29.6413435,531.567321 26.6432161,538.214393 C26.4832161,538.544393 26.3332161,538.874393 26.2032161,539.214393 C22.0951887,548.496271 19.4569429,558.361016 18.3832161,568.454393 C18.3715964,568.523833 18.364913,568.594009 18.3632161,568.664393 C18.1132161,571.024443 17.9632161,573.404393 17.9032161,575.784393 C17.6808533,580.24546 18.1634485,584.713685 19.3332161,589.024393 C20.399829,592.544563 22.2688615,595.769157 24.7932161,598.444393 C25.0432161,598.714393 25.2932161,598.984393 25.5632161,599.244393 C25.7632161,599.454393 25.9832161,599.664393 26.1932161,599.864393 C28.2132161,601.794393 30.4232161,603.584393 32.3232161,605.654393 C33.1940787,606.582627 33.9805202,607.586595 34.6732161,608.654393 C36.9093136,612.274421 37.4915497,616.677581 36.2732161,620.754393 C34.9132161,625.814393 31.8032161,630.084393 28.6232161,634.154393 C27.0332161,636.194393 25.3932161,638.254393 23.9732161,640.434393 C23.4532661,641.214393 22.9732161,642.004393 22.5332761,642.814393 L21.2732761,642.814393 C21.6932761,642.004393 22.1532761,641.214393 22.6532761,640.434393 C26.3032761,634.684393 31.4932761,629.744393 34.1832761,623.414393 C36.0032761,619.144443 36.5532761,614.304393 34.2532761,610.114393 C33.5791926,608.895973 32.7635411,607.761446 31.8232761,606.734393 C29.9932761,604.664393 27.8032761,602.894393 25.8132761,601.024393 C25.3132761,600.554393 24.8232761,600.074393 24.3532761,599.574393 C21.8614794,597.042784 19.9386558,594.008541 18.7132761,590.674393 C17.3255636,586.439679 16.6695097,581.999479 16.7732761,577.544393 C16.7732761,574.704393 16.9232761,571.844393 17.2032761,569.004393 C17.2332761,568.644393 17.2732761,568.274393 17.3132761,567.904393 C19.358317,550.032869 26.1500417,533.034567 36.9832761,518.674393 C37.1832761,518.394393 37.3932761,518.124393 37.6032761,517.854393 C38.0332261,517.294333 38.8232061,518.074393 38.3932161,518.624393 Z" id="路径" fill="#FFFFFF" fill-rule="nonzero"></path>
            <path d="M17.7168561,569.099023 C10.5630696,567.897449 5.33310158,561.690178 5.3625315,554.436243 C5.36663639,554.138572 5.60564759,553.897523 5.90327422,553.890881 C6.20090085,553.884508 6.45021925,554.11488 6.46720613,554.412093 C6.42719908,561.169407 11.3164618,566.948314 17.9870661,568.028093 C18.6885361,568.142483 18.4143161,569.212803 17.7168561,569.099093 L17.7168561,569.099023 Z" id="路径" fill="#FFFFFF" fill-rule="nonzero"></path>
            <path d="M24.5155961,598.645453 C30.4002173,594.532209 34.5183169,588.352105 36.0487461,581.337453 C36.1998061,580.642333 37.2706061,580.913383 37.1197461,581.607663 C35.5135337,588.90432 31.2149423,595.326975 25.0818461,599.593853 C24.4969961,600.000143 23.9339461,599.049573 24.5156261,598.645493 L24.5155961,598.645453 Z" id="路径" fill="#FFFFFF" fill-rule="nonzero"></path>
            <path d="M26.3123461,538.097393 C28.9394303,539.121922 31.9056151,538.756786 34.2057961,537.125713 C34.7852061,536.712203 35.3476561,537.663253 34.7720161,538.074073 C32.2234119,539.863535 28.9535565,540.273411 26.0421261,539.168363 C25.7526985,539.085405 25.5774675,538.791914 25.6417461,538.497773 C25.7176937,538.203022 26.0168456,538.024414 26.3123461,538.097393 L26.3123461,538.097393 Z" id="路径" fill="#FFFFFF" fill-rule="nonzero"></path>
            <path d="M113.413176,557.294333 C113.063176,557.564333 112.703176,557.834333 112.353176,558.114333 C107.605458,561.747759 103.160832,565.760964 99.0631761,570.114333 C98.7431761,570.444333 98.4231761,570.784333 98.1131761,571.124333 L98.1031761,571.134333 C88.3871737,581.681579 80.7047484,593.934132 75.4431761,607.274333 L75.4131761,607.364333 C75.4031761,607.394333 75.3931761,607.414333 75.3831761,607.444333 C73.2976366,612.783965 71.6162373,618.272748 70.3531761,623.864333 C69.1331761,629.324333 68.1331761,635.174333 66.2231761,640.434333 C65.9331761,641.244333 65.6131761,642.044333 65.2731761,642.814333 L20.8131761,642.814333 C20.9631761,642.024333 21.1231761,641.224333 21.2831761,640.434333 C23.5448275,628.84715 27.0795991,617.545271 31.8231761,606.734333 C31.9831761,606.374333 32.1431761,606.014333 32.3231761,605.654333 C34.7719985,600.312561 37.6515035,595.178949 40.9331761,590.304333 C40.9331211,590.301665 40.934157,590.299089 40.9360444,590.297201 C40.9379318,590.295314 40.9405075,590.294278 40.9431761,590.294333 C42.7451724,587.634532 44.6809956,585.067897 46.7431761,582.604333 C52.0913543,576.241255 58.408837,570.760704 65.4631761,566.364333 C65.5031761,566.334333 65.5531761,566.314333 65.5931761,566.284333 C79.6331761,557.574333 96.2731761,553.424333 112.183176,557.014333 L112.193176,557.014333 C112.603176,557.104333 113.003196,557.194393 113.413176,557.294333 Z" id="路径" fill="#E6E6E6" fill-rule="nonzero"></path>
            <path d="M113.363186,557.824393 C113.023186,557.914393 112.683186,558.014393 112.353186,558.114393 C105.344815,560.11698 98.580139,562.890598 92.1831861,566.384393 C91.8631861,566.554393 91.5431861,566.734393 91.2231861,566.914393 C82.3828029,571.848412 74.3580869,578.119092 67.4331861,585.504393 C67.4277556,585.509787 67.4242429,585.516812 67.4231861,585.524393 C67.3431861,585.604393 67.2531861,585.694393 67.1831861,585.774393 C65.5831861,587.494393 64.0431861,589.284393 62.5831861,591.124393 C59.7272992,594.55514 57.426106,598.411832 55.7631861,602.554393 C54.4924874,606.006986 54.0439566,609.70822 54.4531861,613.364393 C54.4831861,613.734393 54.5331861,614.094393 54.5831861,614.464393 C54.6231861,614.754393 54.6631861,615.044393 54.7131861,615.344393 C55.3731861,619.354393 56.5131861,623.374393 56.1931861,627.464393 C55.7993652,631.703265 53.6122789,635.571606 50.1831861,638.094393 C49.0307356,638.985397 47.7988965,639.768686 46.5031861,640.434393 C44.6506167,641.389467 42.7203621,642.185655 40.7331861,642.814393 L36.8031861,642.814393 C37.3331861,642.664393 37.8531861,642.514393 38.3831861,642.364393 C40.2639304,641.833729 42.1106708,641.189206 43.9131861,640.434393 C44.9429093,640.003748 45.9448444,639.50946 46.9131861,638.954393 C50.9331861,636.644393 54.2832361,633.104393 54.9831861,628.374393 C55.5931861,624.234393 54.4131861,620.094393 53.7131861,616.044393 C53.5931861,615.344393 53.4831861,614.654393 53.4231861,613.964393 C52.9457161,610.457312 53.2357355,606.888369 54.2731861,603.504393 C55.7120355,599.283165 57.863123,595.339505 60.6331861,591.844393 C62.3467334,589.568858 64.1758,587.382656 66.1131861,585.294393 C66.3531861,585.024433 66.6031861,584.754433 66.8631861,584.484393 C73.9337255,577.046205 82.0976421,570.730213 91.0731861,565.754393 L91.0831861,565.754393 C97.756923,562.03915 104.837084,559.10642 112.183186,557.014393 L112.193186,557.014393 C112.523186,556.914393 112.863186,556.814393 113.193186,556.724393 C113.883206,556.544333 114.043176,557.634393 113.363186,557.824393 Z" id="路径" fill="#FFFFFF" fill-rule="nonzero"></path>
            <path d="M66.4675961,585.673823 C61.4791236,580.407358 61.0404932,572.302392 65.4314661,566.528323 C65.8635861,565.964123 66.7606161,566.609113 66.3279261,567.174063 C62.227636,572.545308 62.6521407,580.103093 67.3281261,584.981393 C67.8193361,585.495063 66.9559761,586.184553 66.4675761,585.673823 L66.4675961,585.673823 Z" id="路径" fill="#FFFFFF" fill-rule="nonzero"></path>
            <path d="M54.1070261,613.358313 C61.2820352,613.617065 68.2909664,611.161969 73.7362361,606.482573 C74.2753561,606.018513 74.9671361,606.879573 74.4286561,607.343113 C68.7530964,612.202033 61.4540329,614.742115 53.9881461,614.456433 C53.2765561,614.428713 53.3992961,613.330743 54.1070261,613.358313 Z" id="路径" fill="#FFFFFF" fill-rule="nonzero"></path>
            <path d="M91.9957061,566.095833 C93.4764496,568.495549 96.0646209,569.989857 98.8832061,570.072403 C99.5947961,570.091093 99.4712761,571.189083 98.7643261,571.170523 C95.652029,571.064875 92.7944578,569.423462 91.1351561,566.788263 C90.9540126,566.547768 90.9908022,566.207931 91.2192161,566.011773 C91.4573147,565.822157 91.8037025,565.859655 91.9957061,566.095833 Z" id="路径" fill="#FFFFFF" fill-rule="nonzero"></path>
            <path d="M456.382356,173.158123 C454.30483,175.8909 451.123552,177.563096 447.694551,177.724752 C444.265549,177.886409 440.941064,176.520919 438.615656,173.995713 L400.815266,190.435803 L404.497266,169.334193 L439.828666,156.957513 C444.430797,153.250752 451.078043,153.571951 455.301342,157.705162 C459.524641,161.838373 459.98907,168.477149 456.382386,173.158123 L456.382356,173.158123 Z" id="路径" fill="#FFB8B8" fill-rule="nonzero"></path>
            <path d="M431.157306,179.746643 L343.359706,218.854953 L343.171356,218.787573 L243.104356,183.128683 C227.630295,175.041607 221.147561,156.290439 228.322676,140.372993 L228.322676,140.372993 C232.197616,131.804483 239.551616,125.301885 248.530063,122.505098 C257.50851,119.70831 267.254389,120.884293 275.309876,125.736473 L349.778376,170.595553 L421.989586,161.236773 L431.157306,179.746643 Z" id="路径" fill="#E6E6E6" fill-rule="nonzero"></path>
            <path d="M862.703221,643.624393 C862.703221,643.940286 862.579074,644.24351 862.355704,644.466881 C862.132333,644.690251 861.829109,644.815326 861.513216,644.814398 L1.22321613,644.814398 C0.565997274,644.814398 0.0332161267,644.281612 0.0332161267,643.624393 C0.0332161267,642.967174 0.565997274,642.434388 1.22321613,642.434388 L861.513216,642.434388 C861.829109,642.43346 862.132333,642.558535 862.355704,642.781906 C862.579074,643.005277 862.703221,643.3085 862.703221,643.624393 L862.703221,643.624393 Z" id="路径" fill="#CCCCCC" fill-rule="nonzero"></path>
            <path d="M313.343526,296.824913 L224.837676,282.668173 C220.140198,281.163623 216.334924,277.681167 214.420921,273.135118 C212.506918,268.58907 212.675391,263.433565 214.882106,259.022173 L218.895776,250.993853 L217.336696,166.647173 C216.95424,144.316751 228.519873,123.480225 247.673116,111.993393 L256.303976,106.832753 L260.665796,95.7560932 L300.886016,96.7370932 L301.003196,111.264433 L315.407006,134.232693 L315.406516,134.327913 L314.502706,259.341583 L310.532986,272.242953 L316.535426,287.248813 L313.343526,296.824913 Z" id="路径" fill="#E6E6E6" fill-rule="nonzero"></path>
            <circle id="椭圆形" fill="#FFB8B8" fill-rule="nonzero" cx="284.459076" cy="45.4384032" r="36.54413"></circle>
            <path d="M246.405446,53.4049132 C245.315446,48.8130432 245.815886,42.3514232 246.431856,37.7279132 C248.046706,25.6066232 254.778256,14.0831732 265.005216,7.25743321 C266.944332,5.78460424 269.248622,4.86889112 271.669746,4.60898321 C274.089136,4.50798321 276.711636,5.80316321 277.454396,8.10798321 C278.686303,5.03330758 281.135014,2.60505353 284.219916,1.39898321 C287.285817,0.224339473 290.583216,-0.21988806 293.850666,0.101523213 C306.753781,1.16510425 318.031323,9.22658155 323.213726,21.0909932 C324.189816,23.4097932 326.916186,14.8447832 328.152886,17.0357132 C329.289382,19.3130667 331.272102,21.055135 333.676766,21.8891332 C336.100066,22.5653232 337.084326,32.5494732 338.037966,30.2213532 C339.541898,33.7184575 339.148551,37.7423437 336.995855,40.8820016 C334.84316,44.0216595 331.231531,45.8389419 327.427416,45.6966032 C324.960996,45.6043232 322.602526,44.6971332 320.165416,44.3066032 C311.450296,42.9101832 302.205416,49.2297632 300.342296,57.8571832 C299.675235,55.3622311 298.609634,52.9913772 297.186646,50.8361832 C295.721023,48.6613257 293.295083,47.3284015 290.673436,47.2575232 C288.193866,47.3503032 286.014336,48.9714232 284.405506,50.8604732 C282.796676,52.7495232 281.588376,54.9534732 279.967686,56.8323332 C275.212186,62.3453332 268.780236,75.2020332 262.003156,74.2643332 C256.654946,73.5243932 247.893656,59.6744832 246.405446,53.4049132 Z" id="路径" fill="#2F2E41" fill-rule="nonzero"></path>
            <path d="M505.363976,214.568933 C505.892274,211.12887 503.860734,207.8098 500.556916,206.715303 L402.143746,173.938213 C401.20027,173.622615 400.201203,173.507891 399.210746,173.601413 L374.543876,175.934083 L360.390106,177.276633 L334.271436,179.744963 C331.02801,180.05523 328.403771,182.517564 327.887866,185.734693 L314.626516,268.572293 C314.109589,271.900744 315.973822,275.141633 319.110906,276.368213 L418.551306,314.752633 C419.018023,314.933829 419.50296,315.064039 419.997666,315.140993 C420.717797,315.257664 421.45156,315.263221 422.173376,315.157473 L486.428836,305.633983 C489.540915,305.183526 491.989056,302.745063 492.451836,299.634793 L505.363976,214.568933 Z" id="路径" fill="#FFFFFF" fill-rule="nonzero"></path>
            <path d="M321.365086,270.531593 L420.805176,308.913933 C420.950254,308.971247 421.107768,308.989742 421.262176,308.967593 L485.509176,299.445353 C485.900543,299.391757 486.208771,299.084873 486.264076,298.693743 L499.183866,213.626973 C499.244485,213.198571 498.993286,212.787215 498.584496,212.645463 L497.922806,212.421543 L400.165186,179.875663 C400.120661,179.859844 400.074604,179.848723 400.027766,179.842483 C399.951943,179.82784 399.874625,179.824528 399.797766,179.830563 L339.633506,185.523763 L334.859226,185.971703 C334.456656,186.014674 334.13187,186.320297 334.064526,186.719513 L320.805526,269.553903 C320.738776,269.970863 320.971761,270.377947 321.365086,270.531593 Z" id="路径" fill="#E91E63" fill-rule="nonzero"></path>
            <path d="M339.633536,185.523763 L399.797796,179.830563 C399.874655,179.824528 399.951973,179.828535 400.027796,179.842483 C400.074634,179.848723 400.120691,179.859844 400.165216,179.875663 L497.922836,212.421543 L472.136256,215.151193 L462.485796,216.167883 L435.025346,219.069113 C434.945094,219.073137 434.864668,219.072169 434.784536,219.066213 C434.735726,219.051493 434.686916,219.036773 434.628146,219.021103 L339.633536,185.523763 Z" id="路径" fill="#2F2E41" fill-rule="nonzero"></path>
            <path d="M319.109206,276.373483 L418.549296,314.755813 C419.017125,314.936066 419.503651,315.063418 419.999796,315.135493 C420.720008,315.254527 421.454103,315.263705 422.177066,315.162713 L486.424066,305.640473 C489.537437,305.187137 491.986434,302.748101 492.452456,299.636603 L505.362276,214.568883 C505.553118,213.31477 505.408767,212.032489 504.943876,210.852193 C504.878546,210.695313 504.813156,210.538353 504.736876,210.390473 C504.224883,209.312835 503.445592,208.384173 502.473186,207.692893 C501.887571,207.272477 501.241646,206.943202 500.557396,206.716273 L500.440806,206.674963 L402.149056,173.937453 C401.74751,173.809341 401.337421,173.709737 400.921846,173.639383 C400.353756,173.558927 399.777997,173.547769 399.207216,173.606153 L374.544266,175.930833 L360.391736,177.280833 L334.268596,179.747293 C333.199903,179.84706 332.167796,180.188109 331.250066,180.744733 C331.179122,180.779069 331.111372,180.819645 331.047616,180.865983 C331.002124,180.895694 330.958716,180.928481 330.917696,180.964113 C329.298059,182.069612 328.203698,183.791939 327.890876,185.727783 L314.620976,268.571243 C314.1044,271.902308 315.96999,275.145409 319.109206,276.373483 L319.109206,276.373483 Z M329.651396,186.016543 C329.812586,185.023643 330.253021,184.097121 330.921236,183.345243 C331.123558,183.103321 331.34996,182.882602 331.596946,182.686493 C332.271485,182.141061 333.069227,181.768946 333.920596,181.602603 C334.088623,181.567903 334.258681,181.543892 334.429746,181.530713 L378.414406,177.375503 L399.379196,175.380503 C399.521366,175.363923 399.651736,175.366323 399.783056,175.357735 C400.100445,175.352205 400.417743,175.375787 400.730666,175.429253 C401.018492,175.466579 401.301602,175.534032 401.575336,175.630503 L499.983736,208.409323 C500.061486,208.436863 500.129276,208.463393 500.206966,208.490923 C501.101656,208.823853 501.887869,209.395842 502.480016,210.144623 C503.42642,211.304013 503.834035,212.811708 503.600756,214.290033 L490.680076,299.366773 C490.332157,301.696252 488.501497,303.52405 486.171476,303.868323 L421.914476,313.389663 C420.995274,313.521445 420.057627,313.41456 419.191666,313.079283 L319.750666,274.706913 C317.403103,273.781847 316.008564,271.354944 316.391456,268.860913 L329.651396,186.016543 Z" id="形状" fill="#3F3D56" fill-rule="nonzero"></path>
            <path d="M330.703756,181.415783 C330.756287,181.265055 330.848948,181.131517 330.971756,181.029553 C331.01251,180.997004 331.055629,180.967533 331.100756,180.941383 C331.142446,180.925313 331.185096,180.899223 331.226866,180.883103 C331.426406,180.802873 331.648531,180.799078 331.850696,180.872443 L333.920636,181.602603 L435.036336,217.272033 L458.701466,214.771633 L471.944346,213.374883 L499.973666,210.407463 L502.480056,210.144673 L502.967376,210.090803 C503.400648,210.051229 503.800685,210.325796 503.919536,210.744323 C503.933052,210.791046 503.941925,210.838988 503.946026,210.887453 C503.988444,211.282979 503.764127,211.658872 503.395886,211.809333 C503.316626,211.842227 503.23342,211.864659 503.148366,211.876063 L499.738926,212.233443 L472.136246,215.151193 L462.485786,216.167883 L435.025336,219.069113 C434.945084,219.073137 434.864658,219.072169 434.784526,219.066213 C434.735716,219.051493 434.686906,219.036773 434.628136,219.021103 L331.596946,182.686493 L331.247146,182.562693 C331.167015,182.536373 331.092573,182.495165 331.027726,182.441233 C330.707754,182.206579 330.576673,181.791675 330.703756,181.415783 L330.703756,181.415783 Z" id="路径" fill="#3F3D56" fill-rule="nonzero"></path>
            <path d="M420.270646,315.395953 C419.78638,315.318436 419.455037,314.865166 419.528136,314.380213 L434.045006,218.046073 C434.118702,217.558048 434.573942,217.222075 435.062006,217.295513 L435.070006,217.296803 C435.554273,217.37432 435.885619,217.827589 435.812526,218.312543 L421.295656,314.646683 C421.221955,315.134705 420.766717,315.470672 420.278656,315.397233 L420.270646,315.395953 Z" id="路径" fill="#3F3D56" fill-rule="nonzero"></path>
            <path d="M457.067596,309.284813 L447.412796,310.303693 L458.706166,214.768993 C458.706166,214.768993 471.600746,212.434353 471.945676,213.370533 C472.157906,213.929473 457.159646,308.672053 457.067596,309.284813 Z" id="路径" fill="#3F3D56" fill-rule="nonzero"></path>
            <polygon id="路径" fill="#3F3D56" fill-rule="nonzero" points="331.249976 182.561433 330.989976 226.128433 408.115976 255.516433 435.812976 218.312433"></polygon>
            <path d="M502.483036,210.146043 C501.838224,209.33574 500.970199,208.732043 499.986156,208.409503 L401.580216,175.631803 C401.303966,175.538842 401.020263,175.469706 400.732216,175.425153 C400.418315,175.371267 400.099991,175.347443 399.781566,175.354003 L399.941226,174.356693 L400.926336,173.643463 L424.294556,156.724663 L502.335086,180.641713 L502.470576,207.693253 L502.483036,210.146043 Z" id="路径" fill="#3F3D56" fill-rule="nonzero"></path>
            <path d="M335.180596,252.501023 C335.29145,252.511767 335.400779,252.534716 335.506596,252.569453 L365.700246,262.486313 C366.487442,262.744658 366.916161,263.592237 366.657816,264.379433 C366.399471,265.16663 365.551892,265.595348 364.764696,265.337003 L334.571056,255.420153 C333.845309,255.18164 333.414644,254.435904 333.570788,253.688096 C333.726932,252.940288 334.420025,252.429195 335.180576,252.501023 L335.180596,252.501023 Z" id="路径" fill="#FFFFFF" fill-rule="nonzero"></path>
            <circle id="椭圆形" fill="#F2F2F2" fill-rule="nonzero" cx="457.003196" cy="423.264363" r="12"></circle>
            <circle id="椭圆形" fill="#F2F2F2" fill-rule="nonzero" cx="151.003196" cy="467.264363" r="12"></circle>
            <circle id="椭圆形" fill="#F2F2F2" fill-rule="nonzero" cx="401.003196" cy="70.2643632" r="12"></circle>
            <path d="M420.691836,270.149913 C417.543334,271.517775 413.950666,271.42079 410.880548,269.885055 C407.81043,268.349321 405.578232,265.532591 404.784596,262.192793 L363.772596,258.049313 L377.302816,241.443033 L414.174096,247.923683 C420.001044,246.940742 425.642274,250.471358 427.30511,256.141849 C428.967945,261.812341 426.126792,267.830362 420.691796,270.149913 L420.691836,270.149913 Z" id="路径" fill="#FFB8B8" fill-rule="nonzero"></path>
            <path d="M395.466596,263.562213 L299.758106,254.743853 L299.626756,254.592973 L229.776146,174.556393 C220.232781,159.935461 223.747089,140.40902 237.789336,130.032953 L237.789336,130.032953 C245.359325,124.453546 254.953845,122.377437 264.153249,124.328201 C273.352653,126.278965 281.278835,132.070398 285.932886,140.241953 L328.955346,215.786383 L396.520776,242.933383 L395.466596,263.562213 Z" id="路径" fill="#E6E6E6" fill-rule="nonzero"></path>
            <path d="M635.690186,109.645153 C633.313306,92.2112832 630.332306,73.4934332 618.036076,60.9082532 C610.151892,52.8389921 599.313038,48.3414501 588.032094,48.4582119 C576.751149,48.5749736 566.00771,53.2959001 558.292236,61.5266232 C549.341446,71.0753832 545.388586,84.4833432 545.026836,97.5664532 C544.665086,110.649563 547.578886,123.587263 550.811256,136.269923 C567.917231,136.611584 584.896549,133.269533 600.597026,126.470553 C604.523196,124.766483 608.386026,122.839993 612.533916,121.784213 C616.681756,120.728503 619.638456,123.385093 623.496836,125.237563 L625.614836,121.182113 C627.348606,124.408703 632.717276,123.452283 634.664616,120.349873 C636.611666,117.247473 636.185116,113.274393 635.690186,109.645153 Z" id="路径" fill="#2F2E41" fill-rule="nonzero"></path>
            <path d="M567.883596,206.953833 L498.007596,208.448243 C495.016911,203.278142 488.46029,201.418562 483.200589,204.248701 C477.940887,207.078839 475.880384,213.575118 478.547294,218.919436 C481.214205,224.263754 487.643986,226.523229 493.067856,224.022073 C502.335466,224.548813 574.839766,234.839403 579.165256,228.207563 C583.555526,221.476503 606.989486,197.721443 606.989486,197.721443 L588.976776,172.077663 L567.883596,206.953833 Z" id="路径" fill="#FFB8B8" fill-rule="nonzero"></path>
            <circle id="椭圆形" fill="#FFB8B8" fill-rule="nonzero" cx="584.910936" cy="94.0636832" r="32.83012"></circle>
            <g id="编组" transform="translate(-168.6484, -127.5786)"></g>
            <path d="M637.493546,157.232143 C633.624666,149.532333 631.744816,140.020143 623.496836,137.523913 C617.927186,135.838283 595.399926,138.364393 590.323716,141.209813 C581.880156,145.942943 589.531826,154.812153 584.550396,163.111953 C579.135226,172.134663 564.418396,190.241733 559.003196,199.264363 C555.280406,205.467153 567.820296,223.673833 565.807276,230.622363 C563.794546,237.570843 563.697656,245.369723 567.126796,251.739583 C570.195676,257.440993 565.755426,262.484583 568.842006,268.176583 C572.051576,274.096203 575.990496,296.229323 573.003196,302.264433 L571.003196,308.264433 C590.850016,309.430523 607.537786,285.720163 627.261326,283.222553 C632.160266,282.602233 637.246976,281.791823 641.283836,278.948203 C647.230226,274.759563 649.581006,267.158973 651.050216,260.035383 C658.120859,225.214644 653.349135,189.029598 637.493546,157.232143 Z" id="路径" fill="#FBE9F6" fill-rule="nonzero"></path>
            <path d="M667.249526,238.533843 C664.485096,230.988213 659.480526,197.997243 659.480526,197.997243 L628.156356,197.078763 L643.470786,234.850763 L601.680426,293.353593 C601.680426,293.353593 601.757816,293.482123 601.898506,293.711373 C597.401584,292.989813 592.922516,295.100727 590.616668,299.028325 C588.310821,302.955923 588.650434,307.895829 591.472082,311.470917 C594.293731,315.046005 599.019539,316.524095 603.375406,315.193915 C607.731273,313.863736 610.825115,309.99771 611.168146,305.456203 C611.485619,305.638217 611.887611,305.569217 612.126216,305.291753 C616.776246,299.456393 670.013956,246.079543 667.249526,238.533843 Z" id="路径" fill="#FEB8B9" fill-rule="nonzero"></path>
            <path d="M670.434196,217.698803 C667.559086,205.564023 664.662676,193.363313 659.815326,181.873143 C654.967976,170.382973 648.028716,159.530283 638.268636,151.767713 C635.148156,149.285923 631.659636,147.095393 627.747856,146.323823 C623.836386,145.552173 619.428186,146.415753 616.681156,149.305193 C612.284946,153.928763 613.607766,161.350293 615.220056,167.523003 C619.974416,185.723423 624.728673,203.92384 629.482826,222.124253 C643.212279,220.669007 656.941613,219.213703 670.670826,217.758343 L670.434196,217.698803 Z" id="路径" fill="#F8E4F3" fill-rule="nonzero"></path>
            <path d="M625.138696,98.6173132 C623.929616,90.6753132 622.666816,82.6668832 619.826416,75.1887432 C616.986016,67.7105332 612.407596,60.7062532 605.839946,56.4699232 C595.441156,49.7628332 581.977946,51.0564032 570.319206,54.9144832 C561.302986,57.8981832 552.501596,62.4331232 546.143466,69.7237832 C539.784986,77.0145232 536.213896,87.4175732 538.579076,96.9504332 C551.015503,94.0121799 563.451813,91.0739032 575.888006,88.1356032 L574.526636,89.0976032 C582.800955,93.2234431 588.714146,100.930001 590.557466,109.990303 C592.358325,119.154903 589.948071,128.643778 583.991926,135.838033 C592.473553,132.829213 600.955183,129.820447 609.436816,126.811733 C614.672076,124.954603 620.275146,122.814733 623.379486,118.051263 C626.978826,112.528393 626.142506,105.208243 625.138696,98.6173132 Z" id="路径" fill="#2F2E41" fill-rule="nonzero"></path>
        </g>
    </g>
</svg>