<?xml version="1.0" encoding="UTF-8"?>
<svg width="24px" height="24px" viewBox="0 0 19 20" version="1.1" xmlns="http://www.w3.org/2000/svg" xmlns:xlink="http://www.w3.org/1999/xlink">
    <title>编组</title>
    <g id="控件" stroke="none" stroke-width="1" fill="none" fill-rule="evenodd">
        <g id="页头-普通" transform="translate(-1256, -76)" fill="#000000" fill-rule="nonzero">
            <g id="编组" transform="translate(1256.3333, 76)">
                <path d="M1.89473684,6.63157895 C1.89473684,10.2789474 4.87894737,13.2631579 8.52631579,13.2631579 C12.1736842,13.2631579 15.1578947,10.2789474 15.1578947,6.63157895 C15.1578947,2.98421053 12.1736842,0 8.52631579,0 C4.87894737,0 1.89473684,2.98421053 1.89473684,6.63157895 Z M13.5975232,6.63157895 C13.5975232,9.42074303 11.3154799,11.7027864 8.52631579,11.7027864 C5.7371517,11.7027864 3.45510836,9.42074303 3.45510836,6.63157895 C3.45510836,3.84241486 5.7371517,1.56037152 8.52631579,1.56037152 C11.3154799,1.56037152 13.5975232,3.84241486 13.5975232,6.63157895 Z" id="形状"></path>
                <path d="M1.13245033,19.8947368 C3.2384106,17.8369284 6.01986755,16.7109577 9,16.7109577 C11.9801325,16.7109577 14.7615894,17.8369284 16.8675497,19.8947368 L18,18.7881795 C15.5960265,16.458585 12.397351,15.1578947 9,15.1578947 C5.60264901,15.1578947 2.40397351,16.458585 0,18.7881795 L1.13245033,19.8947368 Z" id="路径"></path>
            </g>
        </g>
    </g>
</svg>