<?xml version="1.0" encoding="UTF-8"?>
<svg width="26px" height="24px" viewBox="0 0 26 23" version="1.1" xmlns="http://www.w3.org/2000/svg" xmlns:xlink="http://www.w3.org/1999/xlink">
    <title>编组</title>
    <g id="控件" stroke="none" stroke-width="1" fill="none" fill-rule="evenodd">
        <g id="页头-普通" transform="translate(-1356, -73)" fill="#000000" fill-rule="nonzero">
            <g id="编组-11" transform="translate(1356, 72)">
                <g id="shopping_x5F_cart" transform="translate(13, 12.5) scale(-1, 1) translate(-13, -12.5)translate(0, 1)">
                    <ellipse id="椭圆形" cx="7.04166667" cy="20.2619048" rx="2.70833333" ry="2.73809524"></ellipse>
                    <ellipse id="椭圆形" cx="20.0416667" cy="20.2619048" rx="2.70833333" ry="2.73809524"></ellipse>
                    <path d="M25.9020508,0.531320447 C25.6745539,0.0579166942 25.1164899,-0.135661359 24.6577817,0.101040518 L20.9444742,2.0176549 C20.6259785,2.17960882 20.429124,2.51118311 20.429124,2.87629815 L20.429124,3.83460534 L2.21636755,3.83460534 L1.80873014,2.57251477 C1.64623232,2.06940349 1.12066792,1.79916086 0.633174435,1.96686462 C0.147538072,2.13456838 -0.114315569,2.67697025 0.0481822577,3.17912322 L0.0463251397,3.17912322 L3.76148974,14.6788095 C3.88777377,15.0717155 4.24155475,15.3333333 4.64269225,15.3333333 L21.3586116,15.3333333 C21.6056083,15.3333333 21.8386766,15.2346277 22.0141742,15.0535076 C22.1896719,14.8723876 22.286242,14.6318525 22.286242,14.3769428 L22.286242,3.46853199 L25.4869849,1.81449378 C25.943836,1.57970851 26.1314049,1.00280759 25.9020508,0.531320447 Z M5.31032617,13.4167189 L2.83478785,5.75026141 L20.4281954,5.75026141 L20.4281954,13.4167189 L5.31032617,13.4167189 Z" id="形状"></path>
                </g>
            </g>
        </g>
    </g>
</svg>