<?xml version="1.0" standalone="no"?><!DOCTYPE svg PUBLIC "-//W3C//DTD SVG 1.1//EN" "http://www.w3.org/Graphics/SVG/1.1/DTD/svg11.dtd"><svg t="1718892859379" class="icon" viewBox="0 0 1024 1024" version="1.1" xmlns="http://www.w3.org/2000/svg" p-id="1493" xmlns:xlink="http://www.w3.org/1999/xlink" width="500" height="500"><path d="M512 512m-469.333333 0a469.333333 469.333333 0 1 0 938.666666 0 469.333333 469.333333 0 1 0-938.666666 0Z" fill="#F9EADB" p-id="1494"></path><path d="M314.197333 640L469.333333 795.136 283.136 981.333333l-38.826667-116.309333L128 826.197333zM709.802667 640L896 826.197333l-116.309333 38.826667-38.826667 116.309333L554.666667 795.136z" fill="#A0510E" p-id="1495"></path><path d="M554.666667 109.952l284.16 164.053333a85.333333 85.333333 0 0 1 42.666666 73.898667v328.149333c0 30.506667-16.256 58.666667-42.666666 73.898667L554.666667 914.048a85.376 85.376 0 0 1-85.333334 0l-284.16-164.053333a85.333333 85.333333 0 0 1-42.666666-73.898667V347.946667c0-30.506667 16.256-58.666667 42.666666-73.898667L469.333333 109.952a85.376 85.376 0 0 1 85.333334 0z" fill="#E19449" p-id="1496"></path><path d="M567.338667 458.624l-0.64-0.810667 133.290666-233.514666-83.370666-52.906667L512 426.709333 406.186667 168.533333 323.882667 224.085333l133.418666 233.728-0.64 0.810667-292.906666-87.936-0.768 103.424 277.546666 45.354667 0.597334 2.602666-264.234667 186.965334 81.365333 67.242666 222.378667-205.354666L459.562667 896h104.832l-21.12-325.034667 220.416 203.52 83.370666-65.408-264.234666-186.965333 0.597333-2.602667 276.181333-45.141333-3.498666-102.4-288.768 86.656z" fill="#ECA157" p-id="1497"></path><path d="M554.666667 341.333333h85.333333v341.333334h-85.333333z" fill="#FFFFFF" p-id="1498"></path><path d="M640 341.333333v85.333334H384V341.333333zM640 597.333333v85.333334H384v-85.333334zM640 469.333333v85.333334H384v-85.333334z" fill="#FFFFFF" p-id="1499"></path><path d="M533.333333 146.901333a42.581333 42.581333 0 0 0-42.666666 0L206.506667 310.997333c-13.184 7.637333-21.333333 21.717333-21.333334 36.949334v328.149333c0 15.232 8.149333 29.312 21.333334 36.949333l284.16 164.053334a42.581333 42.581333 0 0 0 42.666666 0l284.16-164.053334c13.184-7.637333 21.333333-21.717333 21.333334-36.949333V347.946667c0-15.232-8.149333-29.312-21.333334-36.949334L533.333333 146.901333z m21.333334-36.949333l284.16 164.053333a85.333333 85.333333 0 0 1 42.666666 73.898667v328.149333c0 30.506667-16.256 58.666667-42.666666 73.898667L554.666667 914.048a85.376 85.376 0 0 1-85.333334 0l-284.16-164.053333a85.333333 85.333333 0 0 1-42.666666-73.898667V347.946667c0-30.506667 16.256-58.666667 42.666666-73.898667L469.333333 109.952a85.376 85.376 0 0 1 85.333334 0z" fill="#C2681B" p-id="1500"></path></svg>