<?xml version="1.0" encoding="UTF-8"?>
<svg width="24px" height="24px" viewBox="0 0 23 20" version="1.1" xmlns="http://www.w3.org/2000/svg" xmlns:xlink="http://www.w3.org/1999/xlink">
    <title>编组</title>
    <g id="控件" stroke="none" stroke-width="1" fill="none" fill-rule="evenodd">
        <g id="页头-普通" transform="translate(-1302, -76)" fill="#000000">
            <g id="编组-10" transform="translate(1302, 73)">
                <g id="编组" transform="translate(0, 3)">
                    <path d="M20.9819548,1.97364494 C18.3732952,-0.595119584 14.2018838,-0.64869504 11.4997754,1.76791519 C8.79694806,-0.64869504 4.62697436,-0.595119584 2.01687704,1.97364494 C-0.672292348,4.61955812 -0.672292348,8.90916629 2.01687704,11.5565082 C2.78531385,12.3129936 9.96218292,19.3720957 9.96218292,19.3720957 C10.8125671,20.2093014 12.1877024,20.2093014 13.0373678,19.3720957 C13.0373678,19.3720957 20.8956944,11.6415145 20.9826737,11.5565082 C23.6725619,8.90916629 23.6725619,4.61955812 20.9819548,1.97364494 Z M19.2678781,10.5115898 L11.8538957,17.8045284 C11.5902844,18.0651572 11.1603231,18.0651572 10.8980534,17.8045284 L3.48407094,10.5115898 C1.50530969,8.56520637 1.50530969,5.39833391 3.48407094,3.4519505 C5.39173095,1.5755569 8.45847551,1.5095665 10.4660797,3.30397203 L11.3756391,4.11718702 L12.2845278,3.30397203 C14.2928028,1.5095665 17.3595473,1.57489033 19.2672073,3.4519505 C21.2459686,5.39766734 21.2459686,8.5645398 19.2678781,10.5115898 Z" id="形状"></path>
                    <path d="M6.68421053,4 C6.68294737,4 6.68294737,4.00063158 6.68168421,4.00063158 C5.20063158,4.00189474 4,5.20252632 4,6.68421053 L4,6.68421053 C4,6.85852632 4.14147368,7 4.31578947,7 C4.49010526,7 4.63157895,6.85852632 4.63157895,6.68421053 L4.63157895,6.68357895 C4.63157895,5.55052632 5.55052632,4.63157895 6.68357895,4.63157895 L6.68421053,4.63157895 C6.85852632,4.63157895 7,4.49010526 7,4.31578947 C7,4.14147368 6.85915789,4 6.68421053,4 Z" id="路径"></path>
                </g>
            </g>
        </g>
    </g>
</svg>